<?xml version="1.0" encoding="UTF-8" standalone="no"?>
<svg
   xmlns:dc="http://purl.org/dc/elements/1.1/"
   xmlns:cc="http://creativecommons.org/ns#"
   xmlns:rdf="http://www.w3.org/1999/02/22-rdf-syntax-ns#"
   xmlns:svg="http://www.w3.org/2000/svg"
   xmlns="http://www.w3.org/2000/svg"
   xmlns:sodipodi="http://sodipodi.sourceforge.net/DTD/sodipodi-0.dtd"
   xmlns:inkscape="http://www.inkscape.org/namespaces/inkscape"
   version="1.1"
   id="svg2"
   xml:space="preserve"
   width="666.66669"
   height="666.66669"
   viewBox="0 0 666.66669 666.66669"
   sodipodi:docname="0.svg"
   inkscape:version="1.0.1 (3bc2e813f5, 2020-09-07)"><metadata
     id="metadata8"><rdf:RDF><cc:Work
         rdf:about=""><dc:format>image/svg+xml</dc:format><dc:type
           rdf:resource="http://purl.org/dc/dcmitype/StillImage" /><dc:title></dc:title></cc:Work></rdf:RDF></metadata><defs
     id="defs6"><clipPath
       clipPathUnits="userSpaceOnUse"
       id="clipPath20"><path
         d="M 0,500 H 500 V 0 H 0 Z"
         id="path18" /></clipPath><clipPath
       clipPathUnits="userSpaceOnUse"
       id="clipPath28"><path
         d="M 70.3647,417.872 H 107.435 V 357.209 H 70.3647 Z"
         id="path26" /></clipPath><clipPath
       clipPathUnits="userSpaceOnUse"
       id="clipPath52"><path
         d="m 189.826,320.987 h 41.022 v -57.388 h -41.022 z"
         id="path50" /></clipPath><clipPath
       clipPathUnits="userSpaceOnUse"
       id="clipPath76"><path
         d="m 296.215,410.406 h 38.59 v -53.197 h -38.59 z"
         id="path74" /></clipPath><clipPath
       clipPathUnits="userSpaceOnUse"
       id="clipPath100"><path
         d="m 375.17,413.619 h 56.41 v -56.41 h -56.41 z"
         id="path98" /></clipPath><clipPath
       clipPathUnits="userSpaceOnUse"
       id="clipPath124"><path
         d="m 392.042,221.929 h 37.07 v -60.662 h -37.07 z"
         id="path122" /></clipPath><clipPath
       clipPathUnits="userSpaceOnUse"
       id="clipPath148"><path
         d="m 411.862,232.167 h 31.072 v -31.073 h -31.072 z"
         id="path146" /></clipPath><clipPath
       clipPathUnits="userSpaceOnUse"
       id="clipPath168"><path
         d="M 83.3075,316.758 H 108.504 V 263.599 H 83.3075 Z"
         id="path166" /></clipPath><clipPath
       clipPathUnits="userSpaceOnUse"
       id="clipPath192"><path
         d="m 192.17,416.695 h 34.696 V 357.209 H 192.17 Z"
         id="path190" /></clipPath><clipPath
       clipPathUnits="userSpaceOnUse"
       id="clipPath216"><path
         d="m 313.413,302.418 h 11.024 v -7.808 h -11.024 z"
         id="path214" /></clipPath><clipPath
       clipPathUnits="userSpaceOnUse"
       id="clipPath230"><path
         d="m 304.018,329.313 h 22.923 v -65.714 h -22.923 z"
         id="path228" /></clipPath><clipPath
       clipPathUnits="userSpaceOnUse"
       id="clipPath258"><path
         d="m 394.07,318.795 h 44.141 V 263.599 H 394.07 Z"
         id="path256" /></clipPath><clipPath
       clipPathUnits="userSpaceOnUse"
       id="clipPath282"><path
         d="m 286.302,223.912 h 58.925 v -62.645 h -58.925 z"
         id="path280" /></clipPath><clipPath
       clipPathUnits="userSpaceOnUse"
       id="clipPath318"><path
         d="M 70.2641,213.735 H 121.723 V 161.267 H 70.2641 Z"
         id="path316" /></clipPath><clipPath
       clipPathUnits="userSpaceOnUse"
       id="clipPath354"><path
         d="m 182.887,212.726 h 51.459 v -51.459 h -51.459 z"
         id="path352" /></clipPath><clipPath
       clipPathUnits="userSpaceOnUse"
       id="clipPath382"><path
         d="m 70.621,117.138 h 49.964 V 55.8988 H 70.621 Z"
         id="path380" /></clipPath><clipPath
       clipPathUnits="userSpaceOnUse"
       id="clipPath418"><path
         d="m 183.687,117.138 h 49.964 V 55.8988 h -49.964 z"
         id="path416" /></clipPath><clipPath
       clipPathUnits="userSpaceOnUse"
       id="clipPath450"><path
         d="m 286.099,118.129 h 58.752 V 55.8988 h -58.752 z"
         id="path448" /></clipPath><clipPath
       clipPathUnits="userSpaceOnUse"
       id="clipPath486"><path
         d="m 390.34,121.733 h 43.345 V 55.8988 H 390.34 Z"
         id="path484" /></clipPath><clipPath
       clipPathUnits="userSpaceOnUse"
       id="clipPath542"><path
         d="M 0,500 H 500 V 0 H 0 Z"
         id="path540" /></clipPath></defs><sodipodi:namedview
     pagecolor="#ffffff"
     bordercolor="#666666"
     borderopacity="1"
     objecttolerance="10"
     gridtolerance="10"
     guidetolerance="10"
     inkscape:pageopacity="0"
     inkscape:pageshadow="2"
     inkscape:window-width="1366"
     inkscape:window-height="715"
     id="namedview4"
     showgrid="false"
     inkscape:pagecheckerboard="true"
     inkscape:zoom="0.78871476"
     inkscape:cx="333.33334"
     inkscape:cy="384.04876"
     inkscape:window-x="-8"
     inkscape:window-y="-8"
     inkscape:window-maximized="1"
     inkscape:current-layer="g10" /><g
     id="g10"
     inkscape:groupmode="layer"
     inkscape:label="217655-P155HR-52"
     transform="matrix(1.3333333,0,0,-1.3333333,0,666.66667)"><g
       id="g38"
       transform="matrix(7.2858465,0,0,7.2858465,114.9584,128.62044)"><path
         d="M 0,0 0.539,46.991 36.606,17.305 c 0.866,-0.713 0.448,-2.115 -0.667,-2.237 L 21.943,13.535 C 21.077,13.44 20.563,12.519 20.937,11.732 L 30.948,-9.324 c 0.301,-0.632 0.032,-1.388 -0.6,-1.688 l -5.335,-2.537 c -0.632,-0.3 -1.387,-0.031 -1.688,0.6 L 13.368,7.995 C 12.991,8.787 11.941,8.966 11.323,8.342 L 2.167,-0.906 C 1.366,-1.715 -0.013,-1.139 0,0"
         style="fill:#ffffff;fill-opacity:1;fill-rule:nonzero;stroke:none"
         id="path40" /></g></g></svg>
