<?xml version="1.0" encoding="UTF-8" standalone="no"?>
<svg
   xmlns:dc="http://purl.org/dc/elements/1.1/"
   xmlns:cc="http://creativecommons.org/ns#"
   xmlns:rdf="http://www.w3.org/1999/02/22-rdf-syntax-ns#"
   xmlns:svg="http://www.w3.org/2000/svg"
   xmlns="http://www.w3.org/2000/svg"
   xmlns:sodipodi="http://sodipodi.sourceforge.net/DTD/sodipodi-0.dtd"
   xmlns:inkscape="http://www.inkscape.org/namespaces/inkscape"
   version="1.1"
   id="svg7"
   xml:space="preserve"
   width="666.66669"
   height="666.66669"
   viewBox="0 0 666.66669 666.66669"
   sodipodi:docname="0.svg"
   inkscape:version="1.0.1 (3bc2e813f5, 2020-09-07)"><metadata
     id="metadata13"><rdf:RDF><cc:Work
         rdf:about=""><dc:format>image/svg+xml</dc:format><dc:type
           rdf:resource="http://purl.org/dc/dcmitype/StillImage" /><dc:title></dc:title></cc:Work></rdf:RDF></metadata><defs
     id="defs11"><clipPath
       clipPathUnits="userSpaceOnUse"
       id="clipPath25"><path
         d="M 0,500 H 500 V 0 H 0 Z"
         id="path23" /></clipPath><clipPath
       clipPathUnits="userSpaceOnUse"
       id="clipPath177"><path
         d="m 332.078,344.008 h 37.844 v -36.607 h -37.844 z"
         id="path175" /></clipPath><clipPath
       clipPathUnits="userSpaceOnUse"
       id="clipPath197"><path
         d="m 283.186,357.64 h 36.077 v -36.894 h -36.077 z"
         id="path195" /></clipPath><clipPath
       clipPathUnits="userSpaceOnUse"
       id="clipPath453"><path
         d="m 148.403,309.057 h 37.925 v -38.888 h -37.925 z"
         id="path451" /></clipPath><clipPath
       clipPathUnits="userSpaceOnUse"
       id="clipPath473"><path
         d="m 198.99,322.689 h 36.077 V 285.796 H 198.99 Z"
         id="path471" /></clipPath><clipPath
       clipPathUnits="userSpaceOnUse"
       id="clipPath717"><path
         d="M 0,500 H 500 V 0 H 0 Z"
         id="path715" /></clipPath></defs><sodipodi:namedview
     pagecolor="#ffffff"
     bordercolor="#666666"
     borderopacity="1"
     objecttolerance="10"
     gridtolerance="10"
     guidetolerance="10"
     inkscape:pageopacity="0"
     inkscape:pageshadow="2"
     inkscape:window-width="1366"
     inkscape:window-height="715"
     id="namedview9"
     showgrid="false"
     inkscape:zoom="0.27868893"
     inkscape:cx="-184.69104"
     inkscape:cy="494.6905"
     inkscape:window-x="-8"
     inkscape:window-y="-8"
     inkscape:window-maximized="1"
     inkscape:current-layer="g2066" /><g
     id="g15"
     inkscape:groupmode="layer"
     inkscape:label="4106504"
     transform="matrix(1.3333333,0,0,-1.3333333,0,666.66667)"><g
       id="g2066"
       transform="matrix(1.5021634,0,0,1.5021634,-119.57887,-296.95841)"><g
         id="g2190"
         transform="matrix(-1,0,0,1,492.83216,-1.7693052)"><g
           id="g611"
           transform="matrix(1.4905781,0,0,1.4905781,219.31541,478.05312)"><path
             d="m 0,0 c -0.003,-0.161 -1.165,-0.219 -3.001,-0.423 -1.82,-0.241 -4.363,-0.638 -6.828,-1.892 -2.477,-1.234 -4.292,-3.041 -5.504,-4.42 -1.208,-1.391 -1.892,-2.332 -2.029,-2.245 -0.106,0.064 0.356,1.147 1.454,2.703 1.095,1.535 2.946,3.562 5.612,4.891 2.655,1.347 5.365,1.64 7.244,1.696 C -1.151,0.33 0.004,0.125 0,0"
             style="fill:#ffffff;fill-opacity:1;fill-rule:nonzero;stroke:none"
             id="path613" /></g><g
           id="g615"
           transform="matrix(1.4905781,0,0,1.4905781,257.24287,454.40482)"><path
             d="m 0,0 c -0.007,-0.168 -1.29,-0.178 -3.312,-0.401 -2.001,-0.256 -4.806,-0.785 -7.378,-2.421 -2.569,-1.641 -4.224,-3.961 -5.265,-5.689 -1.028,-1.753 -1.55,-2.926 -1.707,-2.864 -0.11,0.04 0.165,1.31 1.059,3.213 0.903,1.869 2.568,4.436 5.354,6.218 2.791,1.772 5.812,2.204 7.882,2.277 C -1.266,0.371 0.007,0.118 0,0"
             style="fill:#ffffff;fill-opacity:1;fill-rule:nonzero;stroke:none"
             id="path617" /></g><g
           id="g619"
           transform="matrix(1.4905781,0,0,1.4905781,271.96681,486.97766)"><path
             d="M 0,0 C -0.005,-0.072 -0.214,-0.133 -0.581,-0.184 -0.949,-0.223 -1.476,-0.27 -2.109,-0.371 -3.354,-0.552 -5.146,-0.988 -6.146,-2.549 -7.138,-4.097 -7.4,-5.955 -7.716,-7.215 -8,-8.504 -8.238,-9.302 -8.382,-9.28 c -0.14,0.021 -0.161,0.845 -0.061,2.175 0.06,0.666 0.134,1.459 0.332,2.343 0.197,0.876 0.484,1.868 1.103,2.795 0.614,0.926 1.532,1.601 2.427,1.916 0.895,0.311 1.728,0.415 2.412,0.413 0.687,0.011 1.231,-0.056 1.603,-0.141 C -0.194,0.146 0.006,0.071 0,0"
             style="fill:#ffffff;fill-opacity:1;fill-rule:nonzero;stroke:none"
             id="path621" /></g><g
           id="g631"
           transform="matrix(1.4905781,0,0,1.4905781,306.70711,442.79096)"><path
             d="m 0,0 c -0.115,-0.066 -0.551,0.395 -1.009,1.301 -0.449,0.9 -0.922,2.272 -0.874,3.885 0.036,0.802 0.228,1.569 0.529,2.211 0.296,0.649 0.735,1.136 1.125,1.485 C 0.595,9.558 1.245,9.678 1.294,9.575 1.377,9.429 0.873,9.071 0.299,8.369 -0.278,7.667 -0.797,6.534 -0.844,5.144 -0.887,3.757 -0.577,2.48 -0.323,1.567 -0.064,0.652 0.134,0.074 0,0"
             style="fill:#ffffff;fill-opacity:1;fill-rule:nonzero;stroke:none"
             id="path633" /></g><g
           id="g399"
           transform="matrix(1.4905781,0,0,1.4905781,205.19934,443.42343)"><path
             d="m 0,0 c 0,0 5.922,-21.043 33.791,-23.081 27.868,-2.037 32.86,12.152 32.86,12.152 0,0 15.512,-13.375 24.212,-7.6 8.7,5.776 4.253,35.865 -42.506,33.545 C 18.44,13.531 0,0 0,0"
             style="fill:#efe4ee;fill-opacity:1;fill-rule:nonzero;stroke:none"
             id="path401" /></g><g
           id="g403"
           transform="matrix(1.4905781,0,0,1.4905781,221.8643,445.55882)"><path
             d="m 0,0 c 0,0 -18.089,13.848 -33.532,-9.126 -15.443,-22.976 -10.853,-68.28 8.239,-89.548 0,0 -2.154,66.297 32.288,83.256 C 41.436,1.542 0,0 0,0"
             style="fill:#efe4ee;fill-opacity:1;fill-rule:nonzero;stroke:none"
             id="path405" /></g><g
           id="g519"
           transform="matrix(1.4905781,0,0,1.4905781,168.71506,327.46687)"><path
             d="m 0,0 c 0,0 -4.748,-5.697 -9.732,3.323 -4.985,9.02 0.237,17.328 0.237,17.328 0,0 -10.919,-7.596 -11.869,5.222 -0.949,12.818 12.343,28.01 12.343,28.01 0,0 -13.055,1.661 -8.545,14.717 4.51,13.056 31.571,18.753 31.571,18.753 0,0 -8.071,8.07 3.323,16.141 11.394,8.07 37.742,-0.475 37.742,-0.475 0,0 3.504,12.626 21.662,5.996 18.159,-6.629 18.159,-22.769 18.159,-22.769 0,0 -33.146,-0.577 -53.898,-9.512 C 20.24,67.799 -2.659,24.433 0,0"
             style="fill:#efe4ee;fill-opacity:1;fill-rule:nonzero;stroke:none"
             id="path521" /></g><g
           id="g543"
           transform="matrix(1.4905781,0,0,1.4905781,206.27435,445.38488)"><path
             d="m 0,0 c -0.04,-0.122 -1.345,0.174 -3.285,1.089 -1.937,0.904 -4.507,2.441 -6.91,4.711 -1.178,1.158 -2.182,2.393 -2.917,3.645 -0.179,0.314 -0.32,0.643 -0.473,0.951 -0.159,0.305 -0.29,0.613 -0.374,0.93 -0.097,0.309 -0.19,0.608 -0.279,0.896 -0.062,0.295 -0.09,0.587 -0.131,0.859 -0.108,0.544 -0.066,1.047 -0.034,1.483 0.016,0.218 0.025,0.42 0.049,0.603 0.05,0.181 0.097,0.345 0.139,0.493 0.175,0.587 0.303,0.889 0.372,0.869 0.204,-0.044 -0.209,-1.34 0.2,-3.327 0.06,-0.246 0.104,-0.506 0.179,-0.77 0.1,-0.257 0.204,-0.525 0.312,-0.803 0.092,-0.282 0.227,-0.558 0.39,-0.835 0.156,-0.277 0.296,-0.572 0.473,-0.857 0.727,-1.138 1.692,-2.282 2.815,-3.387 C -7.178,4.38 -4.749,2.786 -2.942,1.74 -1.137,0.683 0.054,0.148 0,0"
             style="fill:#cbc2cb;fill-opacity:1;fill-rule:nonzero;stroke:none"
             id="path545" /></g><g
           id="g571"
           transform="matrix(1.4905781,0,0,1.4905781,224.41453,426.2366)"><path
             d="m 0,0 c -0.028,-0.096 -1.436,0.55 -2.533,2.631 -1.096,2.037 -1.61,5.35 -0.755,8.764 0.43,1.702 1.201,3.254 2.195,4.427 0.976,1.192 2.13,1.992 3.129,2.534 2.042,1.047 3.463,1.173 3.485,1.069 C 5.577,19.256 4.236,18.868 2.408,17.722 1.513,17.131 0.5,16.336 -0.346,15.222 -1.209,14.125 -1.879,12.715 -2.279,11.14 -3.073,7.965 -2.71,4.886 -1.868,2.945 -1.039,0.966 0.125,0.14 0,0"
             style="fill:#cbc2cb;fill-opacity:1;fill-rule:nonzero;stroke:none"
             id="path573" /></g><g
           id="g575"
           transform="matrix(1.4905781,0,0,1.4905781,255.8076,469.5166)"><path
             d="m 0,0 c -0.118,-0.071 -0.533,0.341 -1.062,1.113 -0.511,0.77 -1.2,1.925 -1.462,3.421 -0.255,1.503 0.068,2.843 0.356,3.722 0.307,0.89 0.605,1.392 0.736,1.354 C -1.288,9.569 -1.336,8.99 -1.45,8.093 -1.552,7.196 -1.719,5.982 -1.499,4.708 -1.28,3.431 -0.754,2.303 -0.415,1.463 -0.064,0.625 0.128,0.076 0,0"
             style="fill:#cbc2cb;fill-opacity:1;fill-rule:nonzero;stroke:none"
             id="path577" /></g><g
           id="g591"
           transform="matrix(1.4905781,0,0,1.4905781,183.47819,332.7538)"><path
             d="m 0,0 c -0.264,0.173 1.061,2.276 1.649,5.166 0.644,2.892 0.009,5.279 0.296,5.37 C 2.068,10.578 2.416,10.023 2.662,9.007 2.911,7.996 2.991,6.52 2.668,4.957 2.012,1.791 0.187,-0.178 0,0"
             style="fill:#cbc2cb;fill-opacity:1;fill-rule:nonzero;stroke:none"
             id="path593" /></g><g
           id="g595"
           transform="matrix(1.4905781,0,0,1.4905781,177.19123,369.65725)"><path
             d="M 0,0 C 0.081,0.065 0.753,-0.592 0.866,-2.05 0.904,-2.763 0.751,-3.652 0.278,-4.48 -0.18,-5.313 -0.909,-6.098 -1.84,-6.662 c -0.924,-0.575 -1.969,-0.867 -2.939,-0.855 -0.977,0.019 -1.846,0.398 -2.379,0.906 -1.07,1.046 -1.061,2.003 -0.969,2.012 0.161,0.081 0.46,-0.753 1.426,-1.437 0.478,-0.336 1.146,-0.55 1.916,-0.523 0.768,0.039 1.622,0.297 2.402,0.784 1.596,0.96 2.447,2.544 2.514,3.733 C 0.223,-0.836 -0.16,-0.069 0,0"
             style="fill:#cbc2cb;fill-opacity:1;fill-rule:nonzero;stroke:none"
             id="path597" /></g><g
           id="g599"
           transform="matrix(1.4905781,0,0,1.4905781,334.12406,417.76341)"><path
             d="m 0,0 c 0.024,-0.095 -1.624,-0.527 -4.299,-0.182 -1.34,0.135 -2.886,0.577 -4.553,1.182 -1.644,0.665 -3.378,1.579 -5.058,2.754 -1.663,1.201 -3.074,2.569 -4.226,3.922 -0.525,0.719 -1.078,1.361 -1.457,2.061 -0.202,0.34 -0.398,0.668 -0.586,0.983 -0.153,0.335 -0.3,0.656 -0.439,0.962 -1.079,2.483 -1.063,4.197 -0.973,4.193 0.193,0.037 0.44,-1.592 1.635,-3.873 0.152,-0.283 0.31,-0.579 0.477,-0.888 0.195,-0.291 0.399,-0.593 0.61,-0.907 0.389,-0.647 0.946,-1.242 1.464,-1.912 1.141,-1.258 2.506,-2.544 4.1,-3.694 1.611,-1.127 3.257,-2.027 4.817,-2.714 1.578,-0.626 3.04,-1.125 4.31,-1.344 C -1.648,0.029 -0.017,0.187 0,0"
             style="fill:#cbc2cb;fill-opacity:1;fill-rule:nonzero;stroke:none"
             id="path601" /></g><g
           id="g603"
           transform="matrix(1.4905781,0,0,1.4905781,161.38007,324.47126)"><path
             d="M 0,0 C 8.319,4.689 34.538,6.792 34.538,6.792"
             style="fill:none;stroke:#7a6a78;stroke-width:2;stroke-linecap:round;stroke-linejoin:miter;stroke-miterlimit:10;stroke-dasharray:none;stroke-opacity:1"
             id="path605" /></g><g
           id="g607"
           transform="matrix(1.4905781,0,0,1.4905781,276.31184,303.42996)"><path
             d="m 0,0 c 0,0 1.525,-8.46 8.599,-8.044 7.072,0.416 7.349,12.065 7.349,12.065"
             style="fill:none;stroke:#4d4d58;stroke-width:2;stroke-linecap:round;stroke-linejoin:miter;stroke-miterlimit:10;stroke-dasharray:none;stroke-opacity:1"
             id="path609" /></g><g
           id="g623"
           transform="matrix(1.4905781,0,0,1.4905781,150.6011,423.17033)"><path
             d="m 0,0 c -0.098,-0.033 -0.49,1.104 -0.113,2.927 0.339,1.823 1.573,4.108 3.397,6.174 1.835,2.065 3.843,3.572 5.401,4.468 1.556,0.908 2.641,1.218 2.69,1.099 C 11.51,14.416 7.572,12.422 4.064,8.413 2.321,6.434 1.084,4.371 0.598,2.74 0.074,1.119 0.181,0.019 0,0"
             style="fill:#ffffff;fill-opacity:1;fill-rule:nonzero;stroke:none"
             id="path625" /></g><g
           id="g627"
           transform="matrix(1.4905781,0,0,1.4905781,180.49629,403.53808)"><path
             d="m 0,0 c -0.072,-0.096 -0.688,0.154 -1.433,0.929 -0.73,0.762 -1.484,2.212 -1.426,3.897 0.052,1.675 0.725,3.048 1.323,3.894 0.61,0.855 1.137,1.242 1.237,1.158 C -0.179,9.78 -0.493,9.235 -0.899,8.353 -1.3,7.474 -1.777,6.217 -1.82,4.802 -1.862,3.384 -1.358,2.179 -0.852,1.379 -0.333,0.583 0.104,0.127 0,0"
             style="fill:#ffffff;fill-opacity:1;fill-rule:nonzero;stroke:none"
             id="path629" /></g><g
           id="g379"
           transform="matrix(1.4905781,0,0,1.4905781,318.12077,429.63124)"><path
             d="m 0,0 c 0,0 11.146,-43.803 20.577,-61.457 10.045,-18.802 8.748,-31.816 -13.029,-50.163 -25.59,-21.56 -82.371,-25.914 -95.4,12.804 0,0 -17.188,73.383 15.716,90.901 C -39.232,9.603 0,0 0,0"
             style="fill:#fcd0b4;fill-opacity:1;fill-rule:nonzero;stroke:none"
             id="path381" /></g><g
           id="g383"
           transform="matrix(1.4905781,0,0,1.4905781,225.58419,302.08054)"><path
             d="m 0,0 c 0.649,-4.979 6.974,-8.259 14.126,-7.327 7.153,0.932 12.426,5.724 11.776,10.704 -0.649,4.978 -6.973,8.259 -14.126,7.326 C 4.623,9.771 -0.649,4.979 0,0"
             style="fill:#ffaf88;fill-opacity:1;fill-rule:nonzero;stroke:none"
             id="path385" /></g><g
           id="g387"
           transform="matrix(1.4905781,0,0,1.4905781,310.1104,319.73316)"><path
             d="m 0,0 c 1.877,-4.223 8.384,-5.431 14.532,-2.698 6.15,2.733 9.613,8.372 7.737,12.594 C 20.392,14.12 13.885,15.327 7.735,12.595 1.587,9.861 -1.877,4.223 0,0"
             style="fill:#ffaf88;fill-opacity:1;fill-rule:nonzero;stroke:none"
             id="path389" /></g><g
           id="g391"
           transform="matrix(1.4905781,0,0,1.4905781,257.95179,272.05791)"><path
             d="m 0,0 c -0.217,0.034 -0.175,1.716 0.437,4.334 0.621,2.608 1.807,6.121 3.473,9.83 3.315,7.434 6.992,12.926 7.406,12.679 0.432,-0.248 -2.52,-6.077 -5.784,-13.4 C 3.89,9.786 2.549,6.428 1.639,3.972 0.739,1.515 0.267,-0.046 0,0"
             style="fill:#eba38e;fill-opacity:1;fill-rule:nonzero;stroke:none"
             id="path393" /></g><g
           id="g395"
           transform="matrix(1.4905781,0,0,1.4905781,325.51985,290.46297)"><path
             d="m 0,0 c -0.424,-0.309 -3.837,3.938 -8.297,8.864 -2.234,2.458 -4.347,4.583 -5.968,5.997 -1.603,1.444 -2.745,2.123 -2.65,2.365 0.074,0.22 1.513,-0.103 3.406,-1.363 1.905,-1.226 4.239,-3.29 6.524,-5.803 C -2.42,5.013 0.372,0.261 0,0"
             style="fill:#eba38e;fill-opacity:1;fill-rule:nonzero;stroke:none"
             id="path397" /></g><g
           id="g407"
           transform="matrix(1.4905781,0,0,1.4905781,148.0625,302.17072)"><path
             d="M 0,0 C -1.215,-10.474 7.634,-20.105 19.767,-21.513 31.899,-22.921 42.72,-15.572 43.935,-5.1 45.151,5.374 36.301,15.006 24.168,16.414 12.036,17.821 1.216,10.473 0,0"
             style="fill:#fcd0b4;fill-opacity:1;fill-rule:nonzero;stroke:none"
             id="path409" /></g><g
           id="g411"
           transform="matrix(1.4905781,0,0,1.4905781,188.05262,298.19102)"><path
             d="m 0,0 c -0.311,-2.673 -3.292,-4.522 -6.661,-4.132 -3.368,0.391 -5.847,2.875 -5.536,5.548 0.31,2.673 3.292,4.523 6.66,4.133 C -2.169,5.157 0.31,2.674 0,0"
             style="fill:#f4b8ad;fill-opacity:1;fill-rule:nonzero;stroke:none"
             id="path413" /></g><g
           id="g415"
           transform="matrix(1.4905781,0,0,1.4905781,194.02656,271.93419)"><path
             d="m 0,0 c 0.025,-0.108 -1.008,-0.473 -2.942,-0.915 -1.934,-0.415 -4.804,-0.852 -8.392,-0.7 -3.553,0.179 -7.944,1.061 -12.004,3.75 -4.045,2.613 -7.5,7.278 -8.417,12.858 -0.978,5.539 0.735,11.227 4.067,14.776 0.399,0.447 0.782,0.898 1.181,1.324 0.432,0.394 0.859,0.784 1.279,1.168 0.407,0.399 0.854,0.737 1.309,1.054 0.45,0.32 0.877,0.659 1.328,0.944 1.823,1.122 3.654,1.93 5.394,2.434 3.494,0.984 6.464,0.924 8.433,0.667 1.984,-0.266 3.021,-0.695 2.986,-0.808 -0.032,-0.121 -1.1,0.07 -3.038,0.12 -1.926,0.042 -4.764,-0.101 -8.006,-1.176 -1.615,-0.55 -3.295,-1.372 -4.962,-2.467 -0.412,-0.278 -0.8,-0.609 -1.212,-0.918 -0.414,-0.305 -0.823,-0.631 -1.193,-1.015 -0.385,-0.367 -0.775,-0.74 -1.17,-1.117 -0.355,-0.417 -0.716,-0.838 -1.08,-1.266 -2.98,-3.303 -4.437,-8.371 -3.567,-13.421 0.837,-5.069 3.913,-9.324 7.587,-11.805 3.684,-2.547 7.775,-3.524 11.177,-3.85 3.431,-0.304 6.254,-0.072 8.191,0.131 C -1.114,-0.006 -0.029,0.131 0,0"
             style="fill:#eba38e;fill-opacity:1;fill-rule:nonzero;stroke:none"
             id="path417" /></g><g
           id="g419"
           transform="matrix(1.4905781,0,0,1.4905781,268.24468,342.68852)"><path
             d="M 0,0 C 0,0 5.106,7.161 14.144,4.242"
             style="fill:none;stroke:#7a6a78;stroke-width:2;stroke-linecap:butt;stroke-linejoin:miter;stroke-miterlimit:10;stroke-dasharray:none;stroke-opacity:1"
             id="path421" /></g><g
           id="g423"
           transform="matrix(1.4905781,0,0,1.4905781,310.96346,283.49631)"><path
             d="m 0,0 c -0.088,-0.114 -0.307,-0.053 -0.698,-0.053 -0.385,0.014 -0.943,0 -1.651,-0.092 -1.405,-0.181 -3.413,-0.62 -5.521,-1.261 -2.098,-0.674 -3.914,-1.523 -5.039,-2.327 -1.153,-0.785 -1.533,-1.582 -1.796,-1.515 -0.108,0.029 -0.167,0.304 -0.046,0.763 0.109,0.463 0.445,1.078 1.003,1.684 1.118,1.228 3.06,2.354 5.341,3.085 2.294,0.697 4.431,0.957 6.043,0.826 0.8,-0.066 1.465,-0.257 1.88,-0.506 C -0.061,0.368 0.069,0.073 0,0"
             style="fill:#eba38e;fill-opacity:1;fill-rule:nonzero;stroke:none"
             id="path425" /></g><g
           id="g427"
           transform="matrix(1.4905781,0,0,1.4905781,287.40383,387.03842)"><path
             d="m 0,0 c 0.088,-0.218 -0.877,-0.852 -2.598,-1.43 -1.713,-0.596 -4.148,-1.117 -6.822,-1.526 -1.331,-0.192 -2.599,-0.376 -3.752,-0.544 -1.203,-0.184 -2.307,-0.197 -3.199,-0.174 -1.787,0.066 -2.869,0.189 -2.901,0.428 -0.033,0.247 1.069,0.571 2.823,0.824 0.877,0.137 1.883,0.275 2.983,0.531 1.16,0.257 2.438,0.481 3.774,0.689 2.653,0.387 5.055,0.737 6.795,0.991 C -1.167,0.038 -0.092,0.237 0,0"
             style="fill:#eba38e;fill-opacity:1;fill-rule:nonzero;stroke:none"
             id="path429" /></g><g
           id="g431"
           transform="matrix(1.4905781,0,0,1.4905781,277.74995,377.64154)"><path
             d="m 0,0 c 0.211,-0.437 -0.592,-1.277 -1.885,-1.732 -1.295,-0.469 -2.518,-0.248 -2.567,0.243 -0.052,0.487 0.825,1.013 1.982,1.431 C -1.307,0.351 -0.214,0.446 0,0"
             style="fill:#eba38e;fill-opacity:1;fill-rule:nonzero;stroke:none"
             id="path433" /></g><g
           id="g439"
           transform="matrix(1.4905781,0,0,1.4905781,218.71054,342.14996)"><path
             d="m 0,0 c -0.325,-2.805 1.064,-5.27 3.104,-5.507 2.04,-0.236 3.957,1.845 4.282,4.65 C 7.711,1.947 6.322,4.412 4.283,4.649 2.243,4.886 0.326,2.805 0,0"
             style="fill:#ffffff;fill-opacity:1;fill-rule:nonzero;stroke:none"
             id="path441" /></g><g
           id="g443"
           transform="matrix(1.4905781,0,0,1.4905781,249.01846,324.24262)"><path
             d="M 0,0 C -0.115,-0.991 0.596,-1.889 1.587,-2.004 2.578,-2.118 3.476,-1.408 3.591,-0.417 3.706,0.575 2.995,1.472 2.004,1.587 1.012,1.702 0.115,0.992 0,0"
             style="fill:#ffffff;fill-opacity:1;fill-rule:nonzero;stroke:none"
             id="path445" /></g><g
           id="g447"
           transform="matrix(1.4905781,0,0,1.4905781,-8.3717318,-101.38556)"><g
             id="g449" /><g
             id="g461"><g
               clip-path="url(#clipPath453)"
               opacity="0.279999"
               id="g459"><g
                 transform="translate(186.1176,288.45)"
                 id="g457"><path
                   d="m 0,0 c -1.206,-10.391 -6.375,-19.379 -16.766,-18.173 -10.391,1.206 -22.068,12.15 -20.862,22.54 1.206,10.392 14.13,17.31 24.521,16.104 C -2.717,19.265 1.206,10.391 0,0"
                   style="fill:#fff4ff;fill-opacity:1;fill-rule:nonzero;stroke:none"
                   id="path455" /></g></g></g></g><g
           id="g463"
           transform="matrix(1.4905781,0,0,1.4905781,269.62317,334.1338)"><path
             d="m 0,0 c -0.201,-10.459 -6.302,-22.929 -16.692,-21.723 -10.391,1.206 -22.595,12.624 -21.389,23.016 1.206,10.391 10.57,15.806 20.998,16.63 C -6.631,18.75 0.229,11.89 0,0 Z"
             style="fill:none;stroke:#7a6a78;stroke-width:2;stroke-linecap:butt;stroke-linejoin:miter;stroke-miterlimit:10;stroke-dasharray:none;stroke-opacity:1"
             id="path465" /></g><g
           id="g467"
           transform="matrix(1.4905781,0,0,1.4905781,-8.3717318,-101.38556)"><g
             id="g469" /><g
             id="g481"><g
               clip-path="url(#clipPath473)"
               opacity="0.279999"
               id="g479"><g
                 transform="translate(234.9067,304.8758)"
                 id="g477"><path
                   d="m 0,0 c -1.206,-10.391 -7.216,-20.186 -17.606,-18.979 -10.391,1.206 -19.408,12.98 -18.202,23.372 1.206,10.39 10.554,14.419 20.946,13.213 C -4.472,16.4 1.206,10.391 0,0"
                   style="fill:#fff4ff;fill-opacity:1;fill-rule:nonzero;stroke:none"
                   id="path475" /></g></g></g></g><g
           id="g483"
           transform="matrix(1.4905781,0,0,1.4905781,317.48608,350.54476)"><path
             d="m 0,0 c 0.602,-3.126 -0.394,-5.946 -2.221,-6.298 -1.828,-0.351 -3.797,1.899 -4.398,5.026 -0.602,3.126 0.392,5.945 2.221,6.296 C -2.571,5.376 -0.602,3.127 0,0"
             style="fill:#4d4d58;fill-opacity:1;fill-rule:nonzero;stroke:none"
             id="path485" /></g><g
           id="g487"
           transform="matrix(1.4905781,0,0,1.4905781,341.77505,352.71503)"><path
             d="m 0,0 c -1.206,-10.392 -6.301,-20.414 -16.691,-19.208 -10.392,1.206 -19.935,13.393 -18.729,23.784 1.206,10.391 11.538,14.465 21.93,13.259 C -3.1,16.629 1.206,10.391 0,0 Z"
             style="fill:none;stroke:#7a6a78;stroke-width:2;stroke-linecap:butt;stroke-linejoin:miter;stroke-miterlimit:10;stroke-dasharray:none;stroke-opacity:1"
             id="path489" /></g><g
           id="g491"
           transform="matrix(1.4905781,0,0,1.4905781,296.80878,363.87544)"><path
             d="M 0,0 C -0.326,-2.805 1.063,-5.27 3.104,-5.506 5.143,-5.743 7.061,-3.661 7.386,-0.857 7.711,1.947 6.321,4.413 4.282,4.649 2.242,4.886 0.325,2.805 0,0"
             style="fill:#ffffff;fill-opacity:1;fill-rule:nonzero;stroke:none"
             id="path493" /></g><g
           id="g495"
           transform="matrix(1.4905781,0,0,1.4905781,326.99731,347.56793)"><path
             d="M 0,0 C -0.115,-0.989 0.594,-1.884 1.583,-1.998 2.571,-2.113 3.466,-1.404 3.581,-0.416 3.695,0.573 2.987,1.468 1.998,1.582 1.01,1.697 0.114,0.988 0,0"
             style="fill:#ffffff;fill-opacity:1;fill-rule:nonzero;stroke:none"
             id="path497" /></g><g
           id="g499"
           transform="matrix(1.4905781,0,0,1.4905781,244.93398,331.91535)"><path
             d="m 0,0 c 0.802,-3.103 -0.009,-5.996 -1.811,-6.462 -1.801,-0.466 -3.913,1.672 -4.714,4.775 -0.803,3.102 0.007,5.996 1.809,6.461 C -2.913,5.24 -0.803,3.103 0,0"
             style="fill:#4d4d58;fill-opacity:1;fill-rule:nonzero;stroke:none"
             id="path501" /></g><g
           id="g503"
           transform="matrix(1.4905781,0,0,1.4905781,167.48578,296.56363)"><path
             d="M 0,0 C -0.218,0.022 -0.405,1.001 0.035,2.532 0.258,3.29 0.653,4.18 1.329,5.036 2.002,5.885 2.995,6.682 4.208,7.128 6.697,8.005 9.011,7.309 10.354,6.653 11.711,5.982 12.451,5.467 12.384,5.239 12.312,4.997 11.346,5.122 9.939,5.469 9.237,5.627 8.435,5.804 7.559,5.839 6.675,5.873 5.717,5.784 4.821,5.462 2.999,4.801 1.842,3.259 1.197,2.059 0.532,0.848 0.263,-0.039 0,0"
             style="fill:#eba38e;fill-opacity:1;fill-rule:nonzero;stroke:none"
             id="path505" /></g><g
           id="g507"
           transform="matrix(1.4905781,0,0,1.4905781,295.08821,333.62283)"><path
             d="M 0,0 C 0.095,0.063 0.409,-0.176 0.83,-0.731 1.249,-1.285 1.782,-2.164 2.14,-3.4 2.498,-4.612 2.67,-6.282 1.947,-7.993 1.586,-8.835 0.977,-9.639 0.188,-10.249 c -0.786,-0.615 -1.723,-1.036 -2.693,-1.29 -1.951,-0.499 -3.82,-0.407 -5.437,-0.167 -1.626,0.243 -3.034,0.652 -4.182,1.062 -2.298,0.826 -3.587,1.611 -3.505,1.823 0.092,0.245 1.539,-0.122 3.844,-0.615 1.151,-0.244 2.523,-0.508 4.04,-0.647 1.508,-0.142 3.188,-0.153 4.783,0.258 1.6,0.401 2.845,1.321 3.426,2.52 0.596,1.196 0.625,2.544 0.451,3.635 C 0.557,-1.453 -0.257,-0.146 0,0"
             style="fill:#eba38e;fill-opacity:1;fill-rule:nonzero;stroke:none"
             id="path509" /></g><g
           id="g511"
           transform="matrix(1.4905781,0,0,1.4905781,233.60469,383.46776)"><path
             d="m 0,0 c -3.272,-1.868 -10.604,-7.917 -9.559,-11.651 0.815,-2.912 5.377,2.092 13.56,4.568 C 10.813,-5.022 5.617,3.206 0,0"
             style="fill:#4d4d58;fill-opacity:1;fill-rule:nonzero;stroke:none"
             id="path513" /></g><g
           id="g515"
           transform="matrix(1.4905781,0,0,1.4905781,314.14256,398.37279)"><path
             d="M 0,0 C 3.758,-0.267 12.986,-2.543 13.661,-6.362 14.188,-9.34 7.909,-6.806 -0.539,-8.118 -7.572,-9.209 -6.451,0.457 0,0"
             style="fill:#4d4d58;fill-opacity:1;fill-rule:nonzero;stroke:none"
             id="path517" /></g><g
           id="g523"
           transform="matrix(1.4905781,0,0,1.4905781,214.8328,408.5506)"><path
             d="m 0,0 c 0,0 -14.008,-21.576 -11.593,-32.847 2.415,-11.27 4.83,-21.092 -0.966,-25.6 0,0 -5.796,3.058 -10.305,5.152 C -27.373,-51.202 -18.195,0 0,0"
             style="fill:#efe4ee;fill-opacity:1;fill-rule:nonzero;stroke:none"
             id="path525" /></g><g
           id="g527"
           transform="matrix(1.4905781,0,0,1.4905781,196.34173,319.80441)"><path
             d="m 0,0 c -0.119,0.084 0.447,0.944 1.211,2.584 0.777,1.631 1.566,4.135 1.501,7.357 -0.013,1.608 -0.173,3.382 -0.375,5.304 -0.19,1.927 -0.46,3.93 -0.839,6.068 -0.711,4.255 -1.835,9.022 -1.648,14.223 0.087,2.588 0.532,5.112 1.312,7.443 0.776,2.329 1.851,4.432 2.986,6.332 1.156,1.905 2.307,3.598 3.499,5.203 1.228,1.58 2.537,2.872 3.733,4.019 2.421,2.263 4.364,4.035 5.572,5.403 1.219,1.35 1.801,2.188 1.92,2.117 0.092,-0.051 -0.295,-1.025 -1.383,-2.551 C 16.418,61.964 14.547,59.995 12.267,57.645 11.142,56.458 9.927,55.152 8.826,53.633 7.758,52.093 6.624,50.328 5.56,48.485 4.5,46.627 3.516,44.617 2.814,42.437 2.11,40.264 1.705,37.904 1.624,35.469 1.439,30.581 2.474,25.902 3.112,21.575 3.45,19.418 3.677,17.308 3.803,15.373 3.941,13.437 4.035,11.605 3.967,9.918 3.875,6.52 2.82,3.838 1.823,2.262 0.834,0.657 0.078,-0.059 0,0"
             style="fill:#eba38e;fill-opacity:1;fill-rule:nonzero;stroke:none"
             id="path529" /></g><g
           id="g531"
           transform="matrix(1.4905781,0,0,1.4905781,304.79142,427.51462)"><path
             d="m 0,0 c 0.096,-0.007 0.126,-0.903 -0.518,-2.327 -0.645,-1.409 -1.99,-3.251 -4.088,-5.024 -1.043,-0.892 -2.272,-1.768 -3.706,-2.554 -1.461,-0.764 -3.043,-1.385 -4.761,-1.946 -3.428,-1.102 -7.32,-1.881 -11.462,-2.165 -2.071,-0.137 -4.11,-0.138 -6.079,0.04 -1.913,0.181 -3.772,0.359 -5.548,0.626 -1.775,0.263 -3.46,0.635 -5.001,1.112 -1.551,0.491 -2.898,1.069 -4.138,1.581 -4.919,2.131 -7.907,3.491 -7.839,3.704 0.083,0.254 3.282,-0.712 8.291,-2.533 1.256,-0.434 2.633,-0.941 4.096,-1.339 1.479,-0.392 3.09,-0.695 4.815,-0.905 1.723,-0.215 3.561,-0.357 5.475,-0.514 1.861,-0.145 3.815,-0.134 5.81,-0.002 3.991,0.273 7.775,0.981 11.096,1.957 1.653,0.491 3.223,1.055 4.573,1.692 1.35,0.671 2.558,1.442 3.593,2.225 2.088,1.56 3.486,3.164 4.267,4.376 C -0.347,-0.776 -0.145,0.03 0,0"
             style="fill:#eba38e;fill-opacity:1;fill-rule:nonzero;stroke:none"
             id="path533" /></g><g
           id="g535"
           transform="matrix(1.4905781,0,0,1.4905781,317.70162,416.98818)"><path
             d="M 0,0 C -0.198,-0.429 -2.581,0.214 -5.069,1.935 -7.568,3.656 -8.953,5.761 -8.591,6.077 -8.221,6.414 -6.383,4.99 -4.057,3.392 -1.735,1.783 0.219,0.456 0,0"
             style="fill:#eba38e;fill-opacity:1;fill-rule:nonzero;stroke:none"
             id="path537" /></g><g
           id="g539"
           transform="matrix(1.4905781,0,0,1.4905781,306.42182,408.18227)"><path
             d="m 0,0 c 0.043,-0.123 -0.603,-0.449 -1.734,-1.065 -1.138,-0.61 -2.736,-1.558 -4.734,-2.758 -1.003,-0.594 -2.113,-1.242 -3.359,-1.871 -1.248,-0.641 -2.642,-1.201 -4.1,-1.731 -2.931,-1.071 -6.265,-1.944 -9.797,-2.566 -3.538,-0.584 -6.852,-1.092 -9.955,-1.42 -3.092,-0.343 -5.926,-0.31 -8.235,-0.267 -2.322,0.041 -4.188,0.05 -5.48,0.025 -1.29,-0.022 -2.009,-0.057 -2.034,0.069 -0.023,0.114 0.667,0.382 1.966,0.618 1.298,0.239 3.195,0.423 5.524,0.543 2.339,0.118 5.054,0.213 8.071,0.636 3.004,0.405 6.368,0.971 9.832,1.543 3.459,0.61 6.698,1.409 9.574,2.365 1.446,0.479 2.789,0.96 4.002,1.514 1.224,0.548 2.351,1.12 3.388,1.642 2.069,1.056 3.806,1.862 5.056,2.289 C -0.767,0.001 -0.036,0.108 0,0"
             style="fill:#eba38e;fill-opacity:1;fill-rule:nonzero;stroke:none"
             id="path541" /></g><g
           id="g547"
           transform="matrix(1.4905781,0,0,1.4905781,167.77614,408.7347)"><path
             d="m 0,0 c 0.05,-0.105 -1.014,-0.79 -3.009,-1.183 -1.983,-0.412 -4.905,-0.164 -7.732,1.034 -0.71,0.305 -1.37,0.582 -2.034,0.971 -0.642,0.385 -1.204,0.823 -1.699,1.28 -0.99,0.913 -1.736,1.884 -2.219,2.785 -0.491,0.897 -0.713,1.716 -0.762,2.286 -0.058,0.573 0.045,0.888 0.1,0.885 0.164,0.007 0.205,-1.224 1.291,-2.791 1.067,-1.553 2.947,-3.481 5.716,-4.453 2.702,-1.138 5.343,-1.468 7.239,-1.268 C -1.21,-0.269 -0.059,0.158 0,0"
             style="fill:#cbc2cb;fill-opacity:1;fill-rule:nonzero;stroke:none"
             id="path549" /></g><g
           id="g551"
           transform="matrix(1.4905781,0,0,1.4905781,163.77245,369.62088)"><path
             d="m 0,0 c 0.06,-0.008 0.062,-0.556 -0.246,-1.48 -0.301,-0.922 -0.954,-2.186 -2.028,-3.544 -1.076,-1.352 -2.571,-2.812 -4.542,-4.02 -0.984,-0.602 -2.102,-1.125 -3.352,-1.439 -1.239,-0.301 -2.677,-0.378 -4.02,0.168 -2.646,1.221 -3.949,3.836 -4.333,6.093 -0.424,2.296 -0.204,4.377 0.065,6.066 0.291,1.696 0.706,3.021 1.031,3.919 0.324,0.898 0.575,1.367 0.635,1.346 0.173,-0.054 -0.528,-2.048 -0.938,-5.369 -0.171,-1.651 -0.298,-3.663 0.147,-5.773 0.205,-1.055 0.604,-2.117 1.231,-3.064 0.628,-0.922 1.501,-1.819 2.552,-2.255 1.071,-0.437 2.282,-0.397 3.394,-0.14 1.117,0.267 2.164,0.729 3.1,1.273 1.879,1.091 3.367,2.433 4.467,3.667 1.099,1.242 1.816,2.391 2.217,3.225 C -0.214,-0.492 -0.082,0.016 0,0"
             style="fill:#cbc2cb;fill-opacity:1;fill-rule:nonzero;stroke:none"
             id="path553" /></g><g
           id="g555"
           transform="matrix(1.4905781,0,0,1.4905781,161.61663,325.57892)"><path
             d="m 0,0 c -0.031,-0.093 -1.33,0.281 -2.929,1.696 -0.195,0.18 -0.399,0.369 -0.612,0.567 -0.188,0.219 -0.383,0.448 -0.585,0.685 -0.43,0.46 -0.758,1.042 -1.16,1.618 -0.701,1.214 -1.319,2.634 -1.746,4.191 -0.408,1.561 -0.572,3.095 -0.608,4.485 0.019,1.393 0.119,2.649 0.378,3.671 0.463,2.061 1.172,3.181 1.27,3.129 0.161,-0.066 -0.287,-1.26 -0.545,-3.256 -0.159,-0.992 -0.176,-2.194 -0.145,-3.515 0.086,-1.323 0.269,-2.77 0.656,-4.247 C -5.623,7.553 -5.068,6.21 -4.455,5.045 -4.1,4.495 -3.819,3.927 -3.445,3.478 -3.271,3.242 -3.103,3.015 -2.941,2.796 -2.758,2.597 -2.582,2.404 -2.414,2.221 -1.049,0.765 0.089,0.164 0,0"
             style="fill:#cbc2cb;fill-opacity:1;fill-rule:nonzero;stroke:none"
             id="path557" /></g><g
           id="g559"
           transform="matrix(1.4905781,0,0,1.4905781,167.46834,329.58351)"><path
             d="m 0,0 c -0.027,-0.117 -0.792,-0.059 -1.792,0.594 -1.005,0.633 -2.113,1.893 -2.862,3.513 -0.741,1.625 -0.989,3.263 -0.884,4.433 0.089,1.178 0.463,1.833 0.58,1.79 0.154,-0.045 0.054,-0.724 0.155,-1.787 C -4.719,7.479 -4.384,6.026 -3.71,4.542 -3.023,3.064 -2.128,1.88 -1.341,1.175 -0.567,0.454 0.054,0.155 0,0"
             style="fill:#cbc2cb;fill-opacity:1;fill-rule:nonzero;stroke:none"
             id="path561" /></g><g
           id="g563"
           transform="matrix(1.4905781,0,0,1.4905781,189.64367,333.58646)"><path
             d="m 0,0 c -0.016,0.087 0.331,0.177 0.868,0.437 0.542,0.242 1.245,0.767 1.638,1.72 0.816,1.932 0.345,5.072 -0.397,8.349 -0.755,3.308 -1.603,6.305 -1.934,8.558 -0.173,1.123 -0.217,2.064 -0.123,2.714 0.094,0.656 0.309,0.977 0.361,0.951 C 0.492,22.697 0.422,22.365 0.456,21.763 0.49,21.157 0.638,20.28 0.897,19.203 1.4,17.045 2.354,14.1 3.124,10.734 3.508,9.052 3.778,7.411 3.85,5.888 3.9,4.371 3.76,2.926 3.169,1.839 2.602,0.73 1.643,0.193 1.011,0.058 0.37,-0.105 0.005,-0.053 0,0"
             style="fill:#cbc2cb;fill-opacity:1;fill-rule:nonzero;stroke:none"
             id="path565" /></g><g
           id="g567"
           transform="matrix(1.4905781,0,0,1.4905781,191.79934,401.03512)"><path
             d="M 0,0 C 0.085,-0.059 -0.449,-1 -1.858,-1.968 -2.569,-2.422 -3.472,-2.921 -4.57,-3.195 -5.655,-3.49 -6.919,-3.67 -8.241,-3.453 c -1.313,0.195 -2.554,0.774 -3.37,1.663 -0.878,0.874 -1.069,2.01 -1.183,2.851 0.024,0.43 0.047,0.819 0.067,1.16 0.044,0.334 0.152,0.609 0.214,0.835 0.142,0.449 0.253,0.681 0.323,0.663 0.069,-0.018 0.092,-0.283 0.076,-0.732 0.001,-0.225 -0.046,-0.495 -0.033,-0.806 0.024,-0.306 0.053,-0.655 0.084,-1.04 0.197,-0.722 0.409,-1.622 1.144,-2.268 0.681,-0.668 1.692,-1.125 2.834,-1.297 2.318,-0.347 4.475,0.397 5.852,1.089 C -0.844,-0.604 -0.134,0.122 0,0"
             style="fill:#cbc2cb;fill-opacity:1;fill-rule:nonzero;stroke:none"
             id="path569" /></g><g
           id="g579"
           transform="matrix(1.4905781,0,0,1.4905781,343.60175,419.76928)"><path
             d="m 0,0 c 0.106,-0.002 -0.025,-1.166 -1.366,-2.277 -1.313,-1.114 -3.613,-1.783 -6.082,-1.885 -2.437,-0.108 -4.724,0.034 -6.29,0.618 -1.567,0.566 -2.3,1.324 -2.227,1.416 0.09,0.141 0.941,-0.367 2.434,-0.711 1.486,-0.364 3.635,-0.388 6.032,-0.285 2.36,0.102 4.455,0.614 5.698,1.44 C -0.535,-0.879 -0.162,0.077 0,0"
             style="fill:#cbc2cb;fill-opacity:1;fill-rule:nonzero;stroke:none"
             id="path581" /></g><g
           id="g583"
           transform="matrix(1.4905781,0,0,1.4905781,199.19842,437.29223)"><path
             d="m 0,0 c 0.084,-0.1 -0.724,-0.799 -2.327,-1.072 -0.791,-0.136 -1.761,-0.173 -2.828,0.023 -1.041,0.209 -2.284,0.679 -3.108,1.811 -0.777,1.168 -0.758,2.611 -0.249,3.646 0.508,1.047 1.298,1.669 1.927,2.135 1.308,0.89 2.157,1.279 2.239,1.184 C -4.243,7.602 -4.995,6.96 -6.122,5.972 -6.661,5.467 -7.3,4.837 -7.637,4.016 -7.983,3.22 -7.938,2.157 -7.408,1.355 -6.839,0.562 -5.861,0.114 -4.951,-0.112 -4.027,-0.333 -3.142,-0.376 -2.409,-0.341 -0.927,-0.273 -0.082,0.135 0,0"
             style="fill:#cbc2cb;fill-opacity:1;fill-rule:nonzero;stroke:none"
             id="path585" /></g><g
           id="g587"
           transform="matrix(1.4905781,0,0,1.4905781,296.59622,461.08766)"><path
             d="M 0,0 C 0.061,0.045 0.196,-0.016 0.359,-0.071 0.525,-0.11 0.722,-0.056 1.04,0.107 1.67,0.433 2.614,1.148 3.845,1.564 5.071,2.008 6.293,2.054 7.12,1.906 7.956,1.775 8.425,1.524 8.399,1.4 8.341,1.067 6.369,1.398 4.19,0.583 3.085,0.216 2.171,-0.352 1.289,-0.584 0.858,-0.71 0.351,-0.655 0.14,-0.411 -0.043,-0.187 -0.054,-0.035 0,0"
             style="fill:#cbc2cb;fill-opacity:1;fill-rule:nonzero;stroke:none"
             id="path589" /></g></g></g></g></svg>
