<?xml version="1.0" encoding="UTF-8" standalone="no"?>
<svg
   xmlns:dc="http://purl.org/dc/elements/1.1/"
   xmlns:cc="http://creativecommons.org/ns#"
   xmlns:rdf="http://www.w3.org/1999/02/22-rdf-syntax-ns#"
   xmlns:svg="http://www.w3.org/2000/svg"
   xmlns="http://www.w3.org/2000/svg"
   xmlns:sodipodi="http://sodipodi.sourceforge.net/DTD/sodipodi-0.dtd"
   xmlns:inkscape="http://www.inkscape.org/namespaces/inkscape"
   version="1.1"
   id="svg7"
   xml:space="preserve"
   width="1000"
   height="1000"
   viewBox="0 0 1000 1000"
   sodipodi:docname="2.svg"
   inkscape:version="1.0.1 (3bc2e813f5, 2020-09-07)"><metadata
     id="metadata13"><rdf:RDF><cc:Work
         rdf:about=""><dc:format>image/svg+xml</dc:format><dc:type
           rdf:resource="http://purl.org/dc/dcmitype/StillImage" /><dc:title></dc:title></cc:Work></rdf:RDF></metadata><defs
     id="defs11" /><sodipodi:namedview
     pagecolor="#ffffff"
     bordercolor="#666666"
     borderopacity="1"
     objecttolerance="10"
     gridtolerance="10"
     guidetolerance="10"
     inkscape:pageopacity="0"
     inkscape:pageshadow="2"
     inkscape:window-width="1366"
     inkscape:window-height="715"
     id="namedview9"
     showgrid="false"
     units="px"
     width="100in"
     inkscape:pagecheckerboard="true"
     inkscape:zoom="0.3963133"
     inkscape:cx="706.20009"
     inkscape:cy="415.47227"
     inkscape:window-x="-8"
     inkscape:window-y="-8"
     inkscape:window-maximized="1"
     inkscape:current-layer="g15" /><g
     id="g15"
     inkscape:groupmode="layer"
     inkscape:label="ink_ext_XXXXXX"
     transform="matrix(1.3333333,0,0,-1.3333333,0,662.98667)"><g
       id="g2354"
       transform="matrix(2.4217292,0,0,2.4217292,-1501.9515,-78.659238)"><path
         d="m 774.862,78.1371 h 14.659 v 7.49492 h -14.659 z"
         style="fill:#664249;fill-opacity:1;fill-rule:nonzero;stroke:none;stroke-width:0.1"
         id="path513" /><path
         d="m 806.564,73.0281 h -11.163 v -7.4929 h 11.163 v 7.4929"
         style="fill:#664249;fill-opacity:1;fill-rule:nonzero;stroke:none;stroke-width:0.1"
         id="path515" /><path
         d="m 854.505,22.9309 h 15.916 V 45.25 h -15.916 z"
         style="fill:#6a5472;fill-opacity:1;fill-rule:nonzero;stroke:none;stroke-width:0.1"
         id="path517" /><path
         d="m 826.011,71.243 h -11.163 v -5.7078 h 11.163 v 5.7078"
         style="fill:#6a5472;fill-opacity:1;fill-rule:nonzero;stroke:none;stroke-width:0.1"
         id="path519" /><path
         d="m 743.77,138.916 h -9.83 L 733.144,78.7 h 11.421 l -0.795,60.216"
         style="fill:#ff5050;fill-opacity:1;fill-rule:nonzero;stroke:none;stroke-width:0.1"
         id="path521" /><path
         d="m 743.853,132.578 h -9.997 l -0.129,-9.768 h 10.256 l -0.13,9.768"
         style="fill:#fff5e3;fill-opacity:1;fill-rule:nonzero;stroke:none;stroke-width:0.1"
         id="path523" /><path
         d="m 744.03,119.24 h -10.35 l -0.058,-4.411 h 10.466 l -0.058,4.411"
         style="fill:#fff5e3;fill-opacity:1;fill-rule:nonzero;stroke:none;stroke-width:0.1"
         id="path525" /><path
         d="m 744.506,83.1898 h -11.302 l 0.57,43.1302 -0.047,-3.51 h 5.049 l -0.047,-3.57 h -5.049 l -0.058,-4.411 h 5.049 l -0.392,-29.6169 h 6.2 l 0.027,-2.0223 m -5.601,49.3882 h -5.049 l 0.084,6.338 h 5.049 l -0.084,-6.338"
         style="fill:#a22a2a;fill-opacity:1;fill-rule:nonzero;stroke:none;stroke-width:0.1"
         id="path527" /><path
         d="m 738.776,122.81 h -5.049 l 0.047,3.51 0.083,6.258 h 5.048 l -0.129,-9.768"
         style="fill:#a28278;fill-opacity:1;fill-rule:nonzero;stroke:none;stroke-width:0.1"
         id="path529" /><path
         d="m 738.671,114.829 h -5.049 l 0.058,4.411 h 5.049 l -0.058,-4.411"
         style="fill:#a28278;fill-opacity:1;fill-rule:nonzero;stroke:none;stroke-width:0.1"
         id="path531" /><path
         d="m 843.875,118.557 h -4.686 c -1.899,0 -3.439,-1.54 -3.439,-3.44 v -1.443 h 11.564 v 1.443 c 0,1.9 -1.54,3.44 -3.439,3.44"
         style="fill:#ff5050;fill-opacity:1;fill-rule:nonzero;stroke:none;stroke-width:0.1"
         id="path533" /><path
         d="m 885.061,118.557 h -4.685 c -1.9,0 -3.44,-1.54 -3.44,-3.44 v -1.443 h 11.565 v 1.443 c 0,1.9 -1.54,3.44 -3.44,3.44"
         style="fill:#ff5050;fill-opacity:1;fill-rule:nonzero;stroke:none;stroke-width:0.1"
         id="path535" /><path
         d="m 866.085,6.83711 h -1.926 V 110.371 c 0,2.142 1.584,3.887 3.53,3.887 h 6.993 c 1.946,0 3.529,-1.745 3.529,-3.887 v -5.861 h -1.925 v 5.861 c 0,1.103 -0.735,2.036 -1.604,2.036 h -6.993 c -0.87,0 -1.604,-0.933 -1.604,-2.036 V 6.83711"
         style="fill:#6a5472;fill-opacity:1;fill-rule:nonzero;stroke:none;stroke-width:0.1"
         id="path537" /><path
         d="m 824.242,59.2441 h -1.926 v 51.6199 c 0,1.871 1.584,3.394 3.531,3.394 h 4.806 c 1.946,0 3.531,-1.523 3.531,-3.394 v -4.884 h -1.926 v 4.884 c 0,0.851 -0.719,1.543 -1.605,1.543 h -4.806 c -0.885,0 -1.605,-0.692 -1.605,-1.543 V 59.2441"
         style="fill:#6a5472;fill-opacity:1;fill-rule:nonzero;stroke:none;stroke-width:0.1"
         id="path539" /><path
         d="m 890.061,116.037 h -14.684 c -2.689,0 -4.867,-2.179 -4.867,-4.867 v -6.082 h 24.418 v 6.082 c 0,2.688 -2.179,4.867 -4.867,4.867"
         style="fill:#6a5472;fill-opacity:1;fill-rule:nonzero;stroke:none;stroke-width:0.1"
         id="path541" /><path
         d="m 848.403,115.406 h -12.741 c -3.225,0 -5.838,-2.613 -5.838,-5.838 v -4.087 h 24.417 v 4.087 c 0,3.225 -2.614,5.838 -5.838,5.838"
         style="fill:#6a5472;fill-opacity:1;fill-rule:nonzero;stroke:none;stroke-width:0.1"
         id="path543" /><path
         d="m 659.815,5.62891 h -2.567 V 69.2012 c 0,2.3418 2.12,4.2476 4.725,4.2476 h 4.917 c 2.605,0 4.724,-1.9058 4.724,-4.2476 V 65.518 h -2.567 v 3.6832 c 0,0.9808 -0.968,1.7797 -2.157,1.7797 h -4.917 c -1.19,0 -2.158,-0.7989 -2.158,-1.7797 V 5.62891"
         style="fill:#c4b09d;fill-opacity:1;fill-rule:nonzero;stroke:none;stroke-width:0.1"
         id="path545" /><path
         d="m 671.713,69.2859 -2.947,-1.2109 c -0.907,-0.3711 -1.495,-1.227 -1.495,-2.1738 v -3.7953 h 7.867 v 5.005 c 0,1.6961 -1.803,2.8411 -3.425,2.175"
         style="fill:#664249;fill-opacity:1;fill-rule:nonzero;stroke:none;stroke-width:0.1"
         id="path547" /><path
         d="m 711.445,63.734 h -2.779 v 22.8519 c 0,2.711 2.295,4.9172 5.115,4.9172 h 5.321 c 2.822,0 5.116,-2.2062 5.116,-4.9172 V 82.209 h -2.779 v 4.3769 c 0,1.2379 -1.048,2.245 -2.337,2.245 h -5.321 c -1.288,0 -2.336,-1.0071 -2.336,-2.245 V 63.734"
         style="fill:#3f262c;fill-opacity:1;fill-rule:nonzero;stroke:none;stroke-width:0.1"
         id="path549" /><path
         d="m 698.663,63.734 h -2.779 v 22.8519 c 0,2.711 2.295,4.9172 5.115,4.9172 h 5.321 c 2.821,0 5.116,-2.2062 5.116,-4.9172 V 82.209 h -2.779 v 4.3769 c 0,1.2379 -1.049,2.245 -2.337,2.245 h -5.321 c -1.288,0 -2.336,-1.0071 -2.336,-2.245 V 63.734"
         style="fill:#3f262c;fill-opacity:1;fill-rule:nonzero;stroke:none;stroke-width:0.1"
         id="path551" /><path
         d="m 897.691,103.191 c 0,7.4 -29.945,7.4 -29.945,0 V 20.2969 h 29.945 v 82.8941"
         style="fill:#fff5e3;fill-opacity:1;fill-rule:nonzero;stroke:none;stroke-width:0.1"
         id="path553" /><path
         d="m 867.746,62.2109 h 29.9449 v 3.57109 H 867.746 Z"
         style="fill:#ff5050;fill-opacity:1;fill-rule:nonzero;stroke:none;stroke-width:0.1"
         id="path555" /><path
         d="m 867.746,69.1422 h 29.9449 v 8.82188 H 867.746 Z"
         style="fill:#ff5050;fill-opacity:1;fill-rule:nonzero;stroke:none;stroke-width:0.1"
         id="path557" /><path
         d="m 872.013,43.4121 c 0,-5.6851 4.793,-10.293 10.706,-10.293 5.913,0 10.706,4.6079 10.706,10.293 0,5.684 -4.793,10.2918 -10.706,10.2918 -5.913,0 -10.706,-4.6078 -10.706,-10.2918"
         style="fill:#ff5050;fill-opacity:1;fill-rule:nonzero;stroke:none;stroke-width:0.1"
         id="path559" /><path
         d="m 897.691,20.2969 h -26.943 v 6.416 h -3.002 v 35.498 h 9.614 v -9.8871 c -3.197,-1.7797 -5.347,-5.1047 -5.347,-8.9117 0,-3.8082 2.15,-7.1332 5.347,-8.9133 V 28.909 h 20.331 V 20.2969 M 877.36,65.782 h -9.614 v 3.3602 h 9.614 V 65.782"
         style="fill:#d7c3b5;fill-opacity:1;fill-rule:nonzero;stroke:none;stroke-width:0.1"
         id="path561" /><path
         d="m 867.746,62.2109 h 9.61406 v 3.57109 H 867.746 Z"
         style="fill:#d74040;fill-opacity:1;fill-rule:nonzero;stroke:none;stroke-width:0.1"
         id="path563" /><path
         d="m 867.746,103.191 c 0,0.007 0,0.013 0,0.02 0,-0.007 0,-0.013 0,-0.02 m 0,0.026 c 0,0.004 0,0.009 0,0.014 0,-0.005 0,-0.01 0,-0.014 m 0,0.02 c 0,0.006 0,0.011 10e-4,0.017 -10e-4,-0.005 -10e-4,-0.012 -10e-4,-0.017 m 10e-4,0.019 c 0,0.007 0,0.013 0,0.02 0,-0.007 0,-0.013 0,-0.02 m 0,0.025 c 0,0.005 0.001,0.01 0.001,0.014 0,-0.004 -0.001,-0.009 -0.001,-0.014 m 0.001,0.021 c 0,0.005 10e-4,0.01 10e-4,0.015 0,-0.005 -10e-4,-0.01 -10e-4,-0.015 m 10e-4,0.019 c 0,0.007 10e-4,0.013 10e-4,0.019 0,-0.006 -10e-4,-0.013 -10e-4,-0.019 m 10e-4,0.025 c 10e-4,0.005 10e-4,0.009 10e-4,0.014 0,-0.005 0,-0.009 -10e-4,-0.014 m 0.002,0.02 c 0,0.005 0,0.009 0,0.014 0,-0.005 0,-0.009 0,-0.014 m 0.001,0.02 c 0,0.006 10e-4,0.012 10e-4,0.018 0,-0.006 -10e-4,-0.012 -10e-4,-0.018 m 0.002,0.025 c 0,0.004 0,0.008 10e-4,0.012 -10e-4,-0.004 -10e-4,-0.008 -10e-4,-0.012 m 0.002,0.02 c 0,0.004 0,0.007 0.001,0.011 -0.001,-0.003 -0.001,-0.008 -0.001,-0.011 m 0.001,0.019 c 10e-4,0.006 10e-4,0.012 0.002,0.017 -10e-4,-0.006 -10e-4,-0.011 -0.002,-0.017 m 0.003,0.026 c 0,0.003 10e-4,0.007 10e-4,0.01 0,-0.003 -10e-4,-0.007 -10e-4,-0.01 m 0.002,0.019 c 0,0.003 10e-4,0.006 10e-4,0.009 0,-0.003 -10e-4,-0.006 -10e-4,-0.009 m 0.004,0.031 c 0,0.002 0,0.003 0,0.004 0,-0.001 0,-0.002 0,-0.004 m 0.002,0.015 c 0,0.003 0,0.005 10e-4,0.007 -10e-4,-0.002 -10e-4,-0.005 -10e-4,-0.007 m 0.002,0.019 c 0,0.002 0.001,0.003 0.001,0.005 0,-0.002 -0.001,-0.003 -0.001,-0.005 m 0.007,0.049 c 10e-4,0 10e-4,0 10e-4,0.001 0,-0.001 0,-0.001 -10e-4,-0.001 m 0.003,0.016 v 0.001 c 0,-0.001 0,-0.001 0,-0.001"
         style="fill:#d7cbcb;fill-opacity:1;fill-rule:nonzero;stroke:none;stroke-width:0.1"
         id="path565" /><path
         d="m 877.36,77.9641 h -9.614 v 25.2269 c 0,0.007 0,0.013 0,0.02 0,0.002 0,0.004 0,0.006 0,0.004 0,0.009 0,0.014 0,0.002 0,0.004 0,0.006 0,0.005 0,0.012 10e-4,0.017 0,10e-4 0,0.002 0,0.002 0,0.007 0,0.013 0,0.02 0,0.001 0,0.004 0,0.005 0,0.005 0.001,0.01 0.001,0.014 0,0.003 0,0.005 0,0.007 0,0.005 10e-4,0.01 10e-4,0.015 0,0.001 0,0.003 0,0.004 0,0.006 10e-4,0.013 10e-4,0.019 0,0.002 0,0.004 0,0.006 10e-4,0.005 10e-4,0.009 10e-4,0.014 0,0.002 0,0.004 10e-4,0.006 0,0.005 0,0.009 0,0.014 0.001,0.002 0.001,0.004 0.001,0.006 0,0.006 10e-4,0.012 10e-4,0.018 0,0.002 10e-4,0.005 10e-4,0.007 0,0.004 0,0.008 10e-4,0.012 0,0.002 0,0.005 10e-4,0.008 0,0.003 0,0.008 0.001,0.011 0,0.003 0,0.006 0,0.008 10e-4,0.006 10e-4,0.011 0.002,0.017 0,0.003 10e-4,0.006 10e-4,0.009 0,0.003 10e-4,0.007 10e-4,0.01 0,0.003 0.001,0.006 0.001,0.009 0,0.003 10e-4,0.006 10e-4,0.009 10e-4,0.007 0.002,0.015 0.003,0.022 0,0.002 0,0.003 0,0.004 10e-4,0.004 10e-4,0.008 0.002,0.011 0,0.002 0,0.005 10e-4,0.007 0,0.004 10e-4,0.008 10e-4,0.012 0,0.002 0.001,0.003 0.001,0.005 0.002,0.014 0.004,0.029 0.006,0.044 10e-4,0 10e-4,0 10e-4,0.001 0,0.005 10e-4,0.01 0.002,0.015 0,0 0,0 0,0.001 0.42,2.545 4.532,4.139 9.579,4.785 V 77.9641"
         style="fill:#d7c3b5;fill-opacity:1;fill-rule:nonzero;stroke:none;stroke-width:0.1"
         id="path567" /><path
         d="m 867.746,69.1422 h 9.61406 v 8.82188 H 867.746 Z"
         style="fill:#d74040;fill-opacity:1;fill-rule:nonzero;stroke:none;stroke-width:0.1"
         id="path569" /><path
         d="m 877.36,34.4988 c -3.197,1.7801 -5.347,5.1051 -5.347,8.9133 0,3.807 2.15,7.132 5.347,8.9117 v -17.825"
         style="fill:#d74040;fill-opacity:1;fill-rule:nonzero;stroke:none;stroke-width:0.1"
         id="path571" /><path
         d="m 900.112,26.7129 h -40.835 v -7.1418 h 40.835 v 7.1418"
         style="fill:#664249;fill-opacity:1;fill-rule:nonzero;stroke:none;stroke-width:0.1"
         id="path573" /><path
         d="m 853.541,19.5711 h 17.207 v 7.1418 h -17.207 z"
         style="fill:#3f262c;fill-opacity:1;fill-rule:nonzero;stroke:none;stroke-width:0.1"
         id="path575" /><path
         d="m 776.193,164.617 h -15.042 l -1.017,-88.3631 h 17.077 l -1.018,88.3631"
         style="fill:#ff5050;fill-opacity:1;fill-rule:nonzero;stroke:none;stroke-width:0.1"
         id="path577" /><path
         d="m 776.258,159.045 h -15.171 l -0.156,-13.549 h 15.482 l -0.155,13.549"
         style="fill:#fff5e3;fill-opacity:1;fill-rule:nonzero;stroke:none;stroke-width:0.1"
         id="path579" /><path
         d="m 776.475,140.139 h -15.606 l -0.045,-3.938 h 15.696 l -0.045,3.938"
         style="fill:#fff5e3;fill-opacity:1;fill-rule:nonzero;stroke:none;stroke-width:0.1"
         id="path581" /><path
         d="m 776.808,111.153 h -16.272 l -0.064,-5.515 h 16.4 l -0.064,5.515"
         style="fill:#fff5e3;fill-opacity:1;fill-rule:nonzero;stroke:none;stroke-width:0.1"
         id="path583" /><path
         d="m 766.537,83.1898 h -6.324 l 0.633,54.9232 -0.022,-1.912 h 6.324 l -0.289,-25.048 h -6.323 l -0.064,-5.515 h 6.324 l -0.259,-22.4482 m 0.656,56.9492 h -6.324 l 0.162,14.017 -0.1,-8.66 h 6.324 l -0.062,-5.357 m 0.218,18.906 h -6.324 l 0.064,5.572 h 6.324 l -0.064,-5.572"
         style="fill:#a22a2a;fill-opacity:1;fill-rule:nonzero;stroke:none;stroke-width:0.1"
         id="path585" /><path
         d="m 767.255,145.496 h -6.324 l 0.1,8.66 0.056,4.889 h 6.324 l -0.156,-13.549"
         style="fill:#a28278;fill-opacity:1;fill-rule:nonzero;stroke:none;stroke-width:0.1"
         id="path587" /><path
         d="m 767.148,136.201 h -6.324 l 0.022,1.912 0.023,2.026 h 6.324 l -0.045,-3.938"
         style="fill:#a28278;fill-opacity:1;fill-rule:nonzero;stroke:none;stroke-width:0.1"
         id="path589" /><path
         d="m 766.796,105.638 h -6.324 l 0.064,5.515 h 6.323 l -0.063,-5.515"
         style="fill:#a28278;fill-opacity:1;fill-rule:nonzero;stroke:none;stroke-width:0.1"
         id="path591" /><path
         d="m 742.536,93.9809 h -7.361 c -3.565,0 -6.455,-2.8887 -6.455,-6.4539 V 70.3641 h 20.27 V 87.527 c 0,3.5652 -2.89,6.4539 -6.454,6.4539"
         style="fill:#664249;fill-opacity:1;fill-rule:nonzero;stroke:none;stroke-width:0.1"
         id="path593" /><path
         d="m 736.422,79.816 v 14.1649 h -3.559 c -2.288,0 -4.143,-1.7829 -4.143,-3.9821 V 70.3641 h 20.27 v 9.4519 h -12.568"
         style="fill:#3f262c;fill-opacity:1;fill-rule:nonzero;stroke:none;stroke-width:0.1"
         id="path595" /><path
         d="m 774.655,101.789 h -11.966 c -3.564,0 -6.454,-2.8902 -6.454,-6.455 V 73.8988 h 24.874 V 95.334 c 0,3.5648 -2.889,6.455 -6.454,6.455"
         style="fill:#664249;fill-opacity:1;fill-rule:nonzero;stroke:none;stroke-width:0.1"
         id="path597" /><path
         d="m 764.429,80.0961 v 21.6929 h -4.051 c -2.288,0 -4.143,-1.783 -4.143,-3.9831 V 73.8988 h 24.874 v 6.1973 h -16.68"
         style="fill:#3f262c;fill-opacity:1;fill-rule:nonzero;stroke:none;stroke-width:0.1"
         id="path599" /><path
         d="m 857.005,103.191 c 0,7.4 -29.946,7.4 -29.946,0 V 20.2969 h 29.946 v 82.8941"
         style="fill:#fff5e3;fill-opacity:1;fill-rule:nonzero;stroke:none;stroke-width:0.1"
         id="path601" /><path
         d="m 827.059,75.234 h 29.9461 v 8.82188 H 827.059 Z"
         style="fill:#95cbdb;fill-opacity:1;fill-rule:nonzero;stroke:none;stroke-width:0.1"
         id="path603" /><path
         d="m 857.005,103.191 c 0,0.007 0,0.013 0,0.02 0,-0.007 0,-0.013 0,-0.02 m 0,0.026 c -10e-4,0.005 -10e-4,0.009 -10e-4,0.014 0,-0.005 0,-0.009 10e-4,-0.014 m -10e-4,0.021 c 0,0.005 0,0.009 0,0.014 0,-0.005 0,-0.01 0,-0.014 m 0,0.019 c 0,0.007 0,0.013 -10e-4,0.019 10e-4,-0.006 10e-4,-0.012 10e-4,-0.019 m -10e-4,0.026 c 0,0.004 0,0.009 0,0.013 0,-0.005 0,-0.009 0,-0.013 m -0.001,0.021 c 0,0.004 0,0.007 0,0.011 0,-0.004 0,-0.008 0,-0.011 m -10e-4,0.019 c 0,0.004 0,0.008 0,0.011 0,-0.004 0,-0.007 0,-0.011 m -10e-4,0.03 c 0,0.002 0,0.004 -10e-4,0.006 C 857,103.357 857,103.355 857,103.353 m -10e-4,0.019 c -10e-4,0.002 -10e-4,0.003 -10e-4,0.005 0,-0.002 10e-4,-0.003 10e-4,-0.005 m -0.002,0.018 c 0,0.002 0,0.002 0,0.003 0,0 0,-0.002 0,-0.003"
         style="fill:#d7cbcb;fill-opacity:1;fill-rule:nonzero;stroke:none;stroke-width:0.1"
         id="path605" /><path
         d="m 857.005,35.6922 h -2.95 V 75.234 h 2.95 V 35.6922 m 0,48.3637 h -2.95 v 22.6061 c 1.733,-0.838 2.841,-1.926 2.942,-3.269 0,-0.001 0,-0.001 0,-0.003 0.001,-0.004 0.001,-0.008 0.001,-0.013 0,-0.002 0,-0.003 10e-4,-0.005 0,-0.005 0,-0.009 0,-0.013 10e-4,-0.002 10e-4,-0.004 10e-4,-0.006 0,-0.006 10e-4,-0.013 10e-4,-0.019 0,-0.003 0,-0.007 0,-0.011 10e-4,-0.002 10e-4,-0.005 10e-4,-0.008 0,-0.004 0,-0.007 0,-0.011 0,-0.003 0.001,-0.006 0.001,-0.008 0,-0.004 0,-0.009 0,-0.013 0,-0.002 0,-0.005 0,-0.007 10e-4,-0.006 10e-4,-0.012 10e-4,-0.019 0,-0.002 0,-0.003 0,-0.005 0,-0.005 0,-0.009 0,-0.014 0,-0.003 0,-0.005 0,-0.007 0,-0.005 0,-0.009 10e-4,-0.014 0,-0.002 0,-0.004 0,-0.006 0,-0.007 0,-0.013 0,-0.02 v 0 -19.1351"
         style="fill:#d7c3b5;fill-opacity:1;fill-rule:nonzero;stroke:none;stroke-width:0.1"
         id="path607" /><path
         d="m 854.055,75.234 h 2.95 v 8.82188 h -2.95 z"
         style="fill:#7da2ae;fill-opacity:1;fill-rule:nonzero;stroke:none;stroke-width:0.1"
         id="path609" /><path
         d="m 827.059,103.191 c 0,0.007 0,0.013 0,0.02 0,-0.007 0,-0.013 0,-0.02 m 10e-4,0.027 c 0,0.004 0,0.009 0,0.013 0,-0.004 0,-0.009 0,-0.013 m 0,0.02 c 0,0.004 0,0.009 0,0.014 0,-0.005 0,-0.01 0,-0.014 m 0,0.02 c 0,0.006 0,0.013 0.001,0.019 -0.001,-0.006 -0.001,-0.013 -0.001,-0.019 m 0.001,0.02 c 0,0.006 0,0.013 0,0.02 0,-0.007 0,-0.014 0,-0.02 m 10e-4,0.025 c 0,0.005 0,0.01 0,0.014 0,-0.005 0,-0.009 0,-0.014 m 10e-4,0.021 c 0,0.005 0,0.009 0,0.013 0,-0.004 0,-0.008 0,-0.013 m 10e-4,0.02 c 0,0.006 0,0.011 0.001,0.017 -0.001,-0.006 -0.001,-0.011 -0.001,-0.017 m 0.001,0.02 c 0,0.006 10e-4,0.013 10e-4,0.019 0,-0.007 -10e-4,-0.013 -10e-4,-0.019 m 0.002,0.026 c 0,0.004 0,0.008 10e-4,0.012 -10e-4,-0.004 -10e-4,-0.008 -10e-4,-0.012 m 10e-4,0.021 c 10e-4,0.003 10e-4,0.007 10e-4,0.011 0,-0.004 0,-0.007 -10e-4,-0.011 m 0.002,0.019 c 0,0.004 10e-4,0.008 10e-4,0.012 0,-0.004 -10e-4,-0.007 -10e-4,-0.012 m 0.002,0.02 c 0,0.006 10e-4,0.011 10e-4,0.018 0,-0.007 -10e-4,-0.012 -10e-4,-0.018 m 0.002,0.027 c 0.001,0.003 0.001,0.006 0.002,0.01 -10e-4,-0.004 -10e-4,-0.007 -0.002,-0.01 m 0.003,0.019 c 0,0.004 0,0.006 10e-4,0.01 -10e-4,-0.004 -10e-4,-0.007 -10e-4,-0.01 m 0.002,0.02 c 0,0.003 0.001,0.006 0.001,0.009 0,-0.003 -0.001,-0.006 -0.001,-0.009 m 0.002,0.019 c 10e-4,0.005 0.002,0.011 0.003,0.017 -10e-4,-0.006 -0.002,-0.011 -0.003,-0.017 m 0.004,0.028 c 0,0.002 10e-4,0.005 10e-4,0.007 0,-0.002 -10e-4,-0.005 -10e-4,-0.007 m 0.003,0.019 c 0,0.002 0.001,0.004 0.001,0.007 0,-0.003 -0.001,-0.005 -0.001,-0.007 m 0.003,0.019 c 0,0.002 0,0.003 10e-4,0.005 -10e-4,-0.002 -10e-4,-0.003 -10e-4,-0.005 m 0.008,0.049 c 0,10e-4 0,0.002 0,0.003 0,-0.001 0,-0.002 0,-0.003 m 0.003,0.017 c 0,0.001 0,0.002 10e-4,0.004 -10e-4,-0.002 -10e-4,-0.003 -10e-4,-0.004 m 0.003,0.018 c 0,0.001 10e-4,0.002 10e-4,0.003 0,-0.001 -10e-4,-0.002 -10e-4,-0.003 m 0.014,0.067 v 0 0"
         style="fill:#d7cbcb;fill-opacity:1;fill-rule:nonzero;stroke:none;stroke-width:0.1"
         id="path611" /><path
         d="M 837.712,35.6922 H 827.059 V 75.234 h 10.653 V 35.6922 m 0,48.3637 h -10.653 v 19.1351 0 c 0,0.007 0,0.013 0,0.02 0,0.002 0,0.004 10e-4,0.007 0,0.004 0,0.009 0,0.013 0,0.002 0,0.005 0,0.007 0,0.004 0,0.009 0,0.014 0,0.002 0,0.004 0,0.006 0,0.006 0,0.013 0.001,0.019 0,0 0,0 0,0.001 0,0.006 0,0.013 0,0.02 10e-4,0.002 10e-4,0.003 10e-4,0.005 0,0.005 0,0.009 0,0.014 0,0.003 10e-4,0.005 10e-4,0.007 0,0.005 0,0.009 0,0.013 0,0.003 10e-4,0.005 10e-4,0.007 0,0.006 0,0.011 0.001,0.017 0,10e-4 0,0.002 0,0.003 0,0.006 10e-4,0.012 10e-4,0.019 0,0.002 0,0.005 10e-4,0.007 0,0.004 0,0.008 10e-4,0.012 0,0.003 0,0.006 0,0.009 10e-4,0.004 10e-4,0.007 10e-4,0.011 0,0.003 0.001,0.005 0.001,0.008 0,0.005 10e-4,0.008 10e-4,0.012 0,0.003 0,0.005 10e-4,0.008 0,0.006 10e-4,0.011 10e-4,0.018 10e-4,0.003 10e-4,0.006 10e-4,0.009 0.001,0.003 0.001,0.006 0.002,0.01 0,0.003 0,0.006 10e-4,0.009 0,0.003 0,0.006 10e-4,0.01 0,0.003 0,0.006 10e-4,0.01 0,0.003 0.001,0.006 0.001,0.009 10e-4,0.003 10e-4,0.006 10e-4,0.01 10e-4,0.006 0.002,0.011 0.003,0.017 0,0.003 0.001,0.007 0.001,0.011 0,0.002 10e-4,0.005 10e-4,0.007 10e-4,0.004 10e-4,0.008 0.002,0.012 0,0.002 0.001,0.004 0.001,0.007 0,0.004 10e-4,0.008 0.002,0.012 0,0.002 0,0.003 10e-4,0.005 0.002,0.015 0.004,0.029 0.007,0.044 0,10e-4 0,0.002 0,0.003 10e-4,0.005 0.002,0.009 0.003,0.014 0,0.001 0,0.002 10e-4,0.004 0,0.004 0.001,0.009 0.002,0.014 0,0.001 10e-4,0.002 10e-4,0.003 0.004,0.021 0.008,0.043 0.013,0.064 v 0 c 0.57,2.642 5.168,4.234 10.593,4.777 V 84.0559"
         style="fill:#d7c3b5;fill-opacity:1;fill-rule:nonzero;stroke:none;stroke-width:0.1"
         id="path613" /><path
         d="m 827.059,75.234 h 10.6531 v 8.82188 H 827.059 Z"
         style="fill:#7da2ae;fill-opacity:1;fill-rule:nonzero;stroke:none;stroke-width:0.1"
         id="path615" /><path
         d="m 659.484,35.5352 h -1.904 c -1.104,0 -1.998,-0.8954 -1.998,-1.9981 V 19.152 c 0,-1.102 0.894,-1.9969 1.998,-1.9969 h 1.904 c 1.104,0 1.997,0.8949 1.997,1.9969 v 14.3851 c 0,1.1027 -0.893,1.9981 -1.997,1.9981"
         style="fill:#664249;fill-opacity:1;fill-rule:nonzero;stroke:none;stroke-width:0.1"
         id="path617" /><path
         d="m 663.226,23.9559 h -17.172 c -2.069,0 -3.746,-1.677 -3.746,-3.745 V 9.32109 c 0,-2.06796 1.677,-3.74492 3.746,-3.74492 h 17.172 c 2.069,0 3.746,1.67696 3.746,3.74492 V 20.2109 c 0,2.068 -1.677,3.745 -3.746,3.745"
         style="fill:#664249;fill-opacity:1;fill-rule:nonzero;stroke:none;stroke-width:0.1"
         id="path619" /><path
         d="M 667.873,22.2039 H 651.557 V 4.34219 h 16.316 V 22.2039"
         style="fill:#c4b09d;fill-opacity:1;fill-rule:nonzero;stroke:none;stroke-width:0.1"
         id="path621" /><path
         d="m 653.943,22.2039 h -8.395 V 4.34219 h 8.395 V 22.2039"
         style="fill:#eddcc0;fill-opacity:1;fill-rule:nonzero;stroke:none;stroke-width:0.1"
         id="path623" /><path
         d="M 656.802,6.95313 H 644.49 V 3.17188 h 12.312 v 3.78125"
         style="fill:#c4b09d;fill-opacity:1;fill-rule:nonzero;stroke:none;stroke-width:0.1"
         id="path625" /><path
         d="m 646.296,22.2039 h -5.009 V 4.34297 l 5.009,-7.8e-4 V 22.2039"
         style="fill:#c4b09d;fill-opacity:1;fill-rule:nonzero;stroke:none;stroke-width:0.1"
         id="path627" /><path
         d="M 904.448,22.2039 H 834.275 V 4.34219 h 70.173 V 22.2039"
         style="fill:#c4b09d;fill-opacity:1;fill-rule:nonzero;stroke:none;stroke-width:0.1"
         id="path629" /><path
         d="M 877.467,14.425 H 873.56 V 8.75313 h 3.907 V 14.425"
         style="fill:#6a5472;fill-opacity:1;fill-rule:nonzero;stroke:none;stroke-width:0.1"
         id="path631" /><path
         d="m 870.629,14.425 h -3.906 V 8.75313 h 3.906 V 14.425"
         style="fill:#6a5472;fill-opacity:1;fill-rule:nonzero;stroke:none;stroke-width:0.1"
         id="path633" /><path
         d="m 895.657,14.425 h -6.156 V 4.34219 h 6.156 V 14.425"
         style="fill:#6a5472;fill-opacity:1;fill-rule:nonzero;stroke:none;stroke-width:0.1"
         id="path635" /><path
         d="M 864.357,22.2039 H 849.281 V 4.34219 h 15.076 V 22.2039"
         style="fill:#664249;fill-opacity:1;fill-rule:nonzero;stroke:none;stroke-width:0.1"
         id="path637" /><path
         d="M 850.33,68.1602 H 769.334 V 4.34219 H 850.33 V 68.1602"
         style="fill:#c4b09d;fill-opacity:1;fill-rule:nonzero;stroke:none;stroke-width:0.1"
         id="path639" /><path
         d="M 801.43,69.3262 H 790.266 V 4.34219 H 801.43 V 69.3262"
         style="fill:#664249;fill-opacity:1;fill-rule:nonzero;stroke:none;stroke-width:0.1"
         id="path641" /><path
         d="m 716.899,4.34219 h 80.9973 v 78.8477 H 716.899 Z"
         style="fill:#fff5e3;fill-opacity:1;fill-rule:nonzero;stroke:none;stroke-width:0.1"
         id="path643" /><path
         d="m 716.899,19.4391 h 80.9973 v 17.566 H 716.899 Z"
         style="fill:#c4b09d;fill-opacity:1;fill-rule:nonzero;stroke:none;stroke-width:0.1"
         id="path645" /><path
         d="m 716.899,4.34219 h 26.1922 v 78.8477 H 716.899 Z"
         style="fill:#c4b09d;fill-opacity:1;fill-rule:nonzero;stroke:none;stroke-width:0.1"
         id="path647" /><path
         d="m 736.536,4.34219 h 125.745 v 30.6949 H 736.536 Z"
         style="fill:#fff5e3;fill-opacity:1;fill-rule:nonzero;stroke:none;stroke-width:0.1"
         id="path649" /><path
         d="m 736.536,29.023 h 125.745 v 4.96406 H 736.536 Z"
         style="fill:#eddcc0;fill-opacity:1;fill-rule:nonzero;stroke:none;stroke-width:0.1"
         id="path651" /><path
         d="m 715.997,4.34219 h 42.498 v 30.6949 h -42.498 z"
         style="fill:#c4b09d;fill-opacity:1;fill-rule:nonzero;stroke:none;stroke-width:0.1"
         id="path653" /><path
         d="m 665.085,3.71211 h 72.7809 v 10.4277 H 665.085 Z"
         style="fill:#48344c;fill-opacity:1;fill-rule:nonzero;stroke:none;stroke-width:0.1"
         id="path655" /><path
         d="m 698.025,14.1398 h -32.94 V 3.71211 h 32.94 V 14.1398"
         style="fill:#312335;fill-opacity:1;fill-rule:nonzero;stroke:none;stroke-width:0.1"
         id="path657" /><path
         d="M 827.321,15.684 H 804.229 V 4.34219 h 23.092 V 15.684"
         style="fill:#c4b09d;fill-opacity:1;fill-rule:nonzero;stroke:none;stroke-width:0.1"
         id="path659" /><path
         d="M 824.167,14.227 H 804.68 V 4.14492 h 19.487 V 14.227"
         style="fill:#eddcc0;fill-opacity:1;fill-rule:nonzero;stroke:none;stroke-width:0.1"
         id="path661" /><path
         d="m 853.65,12.218 h -4.752 V 4.34219 h 4.752 V 12.218"
         style="fill:#c4b09d;fill-opacity:1;fill-rule:nonzero;stroke:none;stroke-width:0.1"
         id="path663" /><path
         d="m 846.986,12.218 h -4.752 V 4.34219 h 4.752 V 12.218"
         style="fill:#c4b09d;fill-opacity:1;fill-rule:nonzero;stroke:none;stroke-width:0.1"
         id="path665" /><path
         d="m 839.53,12.218 h -4.752 V 9.06797 h 4.752 V 12.218"
         style="fill:#c4b09d;fill-opacity:1;fill-rule:nonzero;stroke:none;stroke-width:0.1"
         id="path667" /><path
         d="M 791.705,15.684 H 768.612 V 4.34219 h 23.093 V 15.684"
         style="fill:#c4b09d;fill-opacity:1;fill-rule:nonzero;stroke:none;stroke-width:0.1"
         id="path669" /><path
         d="M 788.811,13.952 H 769.064 V 4.34219 h 19.747 V 13.952"
         style="fill:#eddcc0;fill-opacity:1;fill-rule:nonzero;stroke:none;stroke-width:0.1"
         id="path671" /><path
         d="m 719.384,71.1898 c 0,4.4821 -39.986,4.4821 -39.986,0 v -4.3046 h 39.986 v 4.3046"
         style="fill:#664249;fill-opacity:1;fill-rule:nonzero;stroke:none;stroke-width:0.1"
         id="path673" /><path
         d="m 737.027,31.1238 h 126.237 v 4.56836 H 737.027 Z"
         style="fill:#ffc043;fill-opacity:1;fill-rule:nonzero;stroke:none;stroke-width:0.1"
         id="path675" /><path
         d="m 756.692,31.1238 h -17.244 v 4.5684 h 17.244 v -4.5684"
         style="fill:#a26524;fill-opacity:1;fill-rule:nonzero;stroke:none;stroke-width:0.1"
         id="path677" /><path
         d="m 739.448,58.6801 c 0,14.9531 -75.181,14.9531 -75.181,0 L 663.503,8.85117 h 75.945 V 58.6801"
         style="fill:#95cbdb;fill-opacity:1;fill-rule:nonzero;stroke:none;stroke-width:0.1"
         id="path679" /><path
         d="M 685.735,11.0559 V 68.9891 C 673.237,67.468 663.503,64.0332 663.503,58.6801 V 8.85117 h 75.945 v 2.20473 h -53.713"
         style="fill:#6d94a0;fill-opacity:1;fill-rule:nonzero;stroke:none;stroke-width:0.1"
         id="path681" /><path
         d="m 916.141,4.44688 h -282.19 v -3.15 h 282.19 v 3.15"
         style="fill:#ff5050;fill-opacity:1;fill-rule:nonzero;stroke:none;stroke-width:0.1"
         id="path683" /><path
         d="m 685.735,43.5691 h 53.7129 v 8.03398 H 685.735 Z"
         style="fill:#dfedef;fill-opacity:1;fill-rule:nonzero;stroke:none;stroke-width:0.1"
         id="path685" /><path
         d="m 663.503,43.5691 h 22.232 v 8.03398 h -22.232 z"
         style="fill:#b9d9d4;fill-opacity:1;fill-rule:nonzero;stroke:none;stroke-width:0.1"
         id="path687" /><path
         d="m 685.735,32.2262 h 53.7129 v 3.46602 H 685.735 Z"
         style="fill:#dfedef;fill-opacity:1;fill-rule:nonzero;stroke:none;stroke-width:0.1"
         id="path689" /><path
         d="m 663.503,32.2262 h 22.232 v 3.46602 h -22.232 z"
         style="fill:#b9d9d4;fill-opacity:1;fill-rule:nonzero;stroke:none;stroke-width:0.1"
         id="path691" /><path
         d="m 730.575,14.65 h -8.274 v 3.4012 h 5.611 v 1.8968 h -5.611 v 8.386 h 9.961 v -1.7 l -0.69,-1.741 h -4.819 v -1.5438 h 3.822 c 1.037,0 1.77,-0.7043 1.77,-1.7004 v -5.2976 c 0,-0.9973 -0.733,-1.7012 -1.77,-1.7012"
         style="fill:#dbe7e0;fill-opacity:1;fill-rule:nonzero;stroke:none;stroke-width:0.1"
         id="path693" /><path
         d="m 761.098,70.823 0.001,5.2372 H 750.92 V 70.823 h 10.178"
         style="fill:#c4b09d;fill-opacity:1;fill-rule:nonzero;stroke:none;stroke-width:0.1"
         id="path695" /><path
         d="m 776.365,70.823 v 5.2372 H 766.187 V 70.823 h 10.178"
         style="fill:#c4b09d;fill-opacity:1;fill-rule:nonzero;stroke:none;stroke-width:0.1"
         id="path697" /><path
         d="m 792.342,70.823 v 5.236 l -10.178,0.0012 V 70.823 h 10.178"
         style="fill:#c4b09d;fill-opacity:1;fill-rule:nonzero;stroke:none;stroke-width:0.1"
         id="path699" /><path
         d="M 836.763,56.3301 V 38.8809 h 5.962 V 56.327 l -5.962,0.0031"
         style="fill:#6a5472;fill-opacity:1;fill-rule:nonzero;stroke:none;stroke-width:0.1"
         id="path701" /><path
         d="M 822.93,56.3301 V 38.8809 h 5.961 V 56.327 l -5.961,0.0031"
         style="fill:#6a5472;fill-opacity:1;fill-rule:nonzero;stroke:none;stroke-width:0.1"
         id="path703" /><path
         d="M 809.096,56.3301 V 38.8809 h 5.961 V 56.327 l -5.961,0.0031"
         style="fill:#6a5472;fill-opacity:1;fill-rule:nonzero;stroke:none;stroke-width:0.1"
         id="path705" /><path
         d="M 750.92,65.4672 V 56.525 h 41.422 v 8.941 l -41.422,0.0012"
         style="fill:#c4b09d;fill-opacity:1;fill-rule:nonzero;stroke:none;stroke-width:0.1"
         id="path707" /><path
         d="m 706.465,89.3602 c 0,-1.784 1.504,-3.2293 3.359,-3.2293 1.856,0 3.359,1.4453 3.359,3.2293 0,1.7828 -1.503,3.2296 -3.359,3.2296 -1.855,0 -3.359,-1.4468 -3.359,-3.2296"
         style="fill:#3f262c;fill-opacity:1;fill-rule:nonzero;stroke:none;stroke-width:0.1"
         id="path709" /><path
         d="m 708.322,89.3602 c 0,-0.7981 0.673,-1.4442 1.502,-1.4442 0.83,0 1.502,0.6461 1.502,1.4442 0,0.798 -0.672,1.4437 -1.502,1.4437 -0.829,0 -1.502,-0.6457 -1.502,-1.4437"
         style="fill:#c4b09d;fill-opacity:1;fill-rule:nonzero;stroke:none;stroke-width:0.1"
         id="path711" /></g></g></svg>
