<?xml version="1.0" encoding="UTF-8" standalone="no"?>
<svg
   xmlns:dc="http://purl.org/dc/elements/1.1/"
   xmlns:cc="http://creativecommons.org/ns#"
   xmlns:rdf="http://www.w3.org/1999/02/22-rdf-syntax-ns#"
   xmlns:svg="http://www.w3.org/2000/svg"
   xmlns="http://www.w3.org/2000/svg"
   xmlns:sodipodi="http://sodipodi.sourceforge.net/DTD/sodipodi-0.dtd"
   xmlns:inkscape="http://www.inkscape.org/namespaces/inkscape"
   version="1.1"
   id="svg7"
   xml:space="preserve"
   width="1000"
   height="1000"
   viewBox="0 0 1000 1000"
   sodipodi:docname="2.svg"
   inkscape:version="1.0.1 (3bc2e813f5, 2020-09-07)"><metadata
     id="metadata13"><rdf:RDF><cc:Work
         rdf:about=""><dc:format>image/svg+xml</dc:format><dc:type
           rdf:resource="http://purl.org/dc/dcmitype/StillImage" /><dc:title></dc:title></cc:Work></rdf:RDF></metadata><defs
     id="defs11" /><sodipodi:namedview
     pagecolor="#ffffff"
     bordercolor="#666666"
     borderopacity="1"
     objecttolerance="10"
     gridtolerance="10"
     guidetolerance="10"
     inkscape:pageopacity="0"
     inkscape:pageshadow="2"
     inkscape:window-width="1366"
     inkscape:window-height="715"
     id="namedview9"
     showgrid="false"
     units="px"
     width="100in"
     inkscape:pagecheckerboard="true"
     inkscape:zoom="0.3802654"
     inkscape:cx="847.12278"
     inkscape:cy="383.64576"
     inkscape:window-x="-8"
     inkscape:window-y="-8"
     inkscape:window-maximized="1"
     inkscape:current-layer="g15"
     inkscape:document-rotation="0"
     inkscape:snap-bbox="false"
     inkscape:snap-bbox-midpoints="true"
     inkscape:snap-bbox-edge-midpoints="true"
     inkscape:bbox-nodes="true"
     inkscape:bbox-paths="true" /><g
     id="g15"
     inkscape:groupmode="layer"
     inkscape:label="ink_ext_XXXXXX"
     transform="matrix(1.3333333,0,0,-1.3333333,0,662.98667)"><g
       id="g374"
       transform="translate(-56.928801)"><g
         id="g314"><path
           d="m 374.28179,103.42636 h 57.2196 v 29.2555 h -57.2196 z"
           style="fill:#664249;fill-opacity:1;fill-rule:nonzero;stroke:none;stroke-width:0.390338"
           id="path513" /><path
           d="m 498.02665,83.484003 h -43.5734 V 54.236389 h 43.5734 v 29.247614"
           style="fill:#664249;fill-opacity:1;fill-rule:nonzero;stroke:none;stroke-width:0.390338"
           id="path515" /><path
           d="m 573.93562,76.516085 h -43.5734 V 54.236389 h 43.5734 v 22.279696"
           style="fill:#6a5472;fill-opacity:1;fill-rule:nonzero;stroke:none;stroke-width:0.390338"
           id="path519" /><path
           d="m 252.91799,340.66932 h -38.3702 L 211.4407,105.62357 h 44.58047 l -3.10318,235.04575"
           style="fill:#ff5050;fill-opacity:1;fill-rule:nonzero;stroke:none;stroke-width:0.390338"
           id="path521" /><path
           d="m 253.24197,315.92972 h -39.02206 l -0.50354,-38.12819 h 40.03303 l -0.50743,38.12819"
           style="fill:#fff5e3;fill-opacity:1;fill-rule:nonzero;stroke:none;stroke-width:0.390338"
           id="path523" /><path
           d="m 253.93286,263.86648 h -40.39995 l -0.2264,-17.2178 h 40.85275 l -0.2264,17.2178"
           style="fill:#fff5e3;fill-opacity:1;fill-rule:nonzero;stroke:none;stroke-width:0.390338"
           id="path525" /><path
           d="M 255.79087,123.14895 H 211.6749 l 2.22493,168.35344 -0.18346,-13.70086 h 19.70815 l -0.18346,-13.93505 h -19.70815 l -0.2264,-17.2178 h 19.70816 l -1.53013,-115.60593 h 24.20094 l 0.10539,-7.8938 m -21.86281,192.78077 h -19.70815 l 0.32788,24.7396 h 19.70815 l -0.32788,-24.7396"
           style="fill:#a22a2a;fill-opacity:1;fill-rule:nonzero;stroke:none;stroke-width:0.390338"
           id="path527" /><path
           d="m 233.42452,277.80153 h -19.70815 l 0.18346,13.70086 0.32398,24.42733 h 19.70425 l -0.50354,-38.12819"
           style="fill:#a28278;fill-opacity:1;fill-rule:nonzero;stroke:none;stroke-width:0.390338"
           id="path529" /><path
           d="m 233.01467,246.64868 h -19.70816 l 0.2264,17.2178 h 19.70815 l -0.22639,-17.2178"
           style="fill:#a28278;fill-opacity:1;fill-rule:nonzero;stroke:none;stroke-width:0.390338"
           id="path531" /><path
           d="m 643.66555,261.20047 h -18.29122 c -7.41252,0 -13.42372,-6.0112 -13.42372,-13.42762 v -5.63257 h 45.13865 v 5.63257 c 0,7.41642 -6.0112,13.42762 -13.42371,13.42762"
           style="fill:#ff5050;fill-opacity:1;fill-rule:nonzero;stroke:none;stroke-width:0.390338"
           id="path533" /><path
           d="m 567.03055,29.679853 h -7.51791 V 231.17179 c 0,7.30322 6.18295,13.24806 13.78283,13.24806 h 18.75963 c 7.59597,0 13.78282,-5.94484 13.78282,-13.24806 V 212.1077 h -7.5179 v 19.06409 c 0,3.32177 -2.80653,6.02291 -6.26492,6.02291 h -18.75963 c -3.45449,0 -6.26492,-2.70114 -6.26492,-6.02291 V 29.679853"
           style="fill:#6a5472;fill-opacity:1;fill-rule:nonzero;stroke:none;stroke-width:0.390338"
           id="path539" /><path
           d="m 661.34004,248.90093 h -49.73293 c -12.58839,0 -22.78791,-10.19953 -22.78791,-22.78792 v -15.9531 h 95.30876 v 15.9531 c 0,12.58839 -10.20343,22.78792 -22.78792,22.78792"
           style="fill:#6a5472;fill-opacity:1;fill-rule:nonzero;stroke:none;stroke-width:0.390338"
           id="path543" /><path
           d="m 379.47718,440.99002 h -58.7146 L 316.79285,96.075517 h 66.65797 l -3.97364,344.914503"
           style="fill:#ff5050;fill-opacity:1;fill-rule:nonzero;stroke:none;stroke-width:0.390338"
           id="path577" /><path
           d="m 379.7309,419.2404 h -59.21813 l -0.60893,-52.88686 h 60.43208 l -0.60502,52.88686"
           style="fill:#fff5e3;fill-opacity:1;fill-rule:nonzero;stroke:none;stroke-width:0.390338"
           id="path579" /><path
           d="m 380.57793,345.44315 h -60.9161 l -0.17565,-15.3715 h 61.26741 l -0.17566,15.3715"
           style="fill:#fff5e3;fill-opacity:1;fill-rule:nonzero;stroke:none;stroke-width:0.390338"
           id="path581" /><path
           d="m 381.87776,232.29986 h -63.51575 l -0.24982,-21.52712 h 64.01538 l -0.24981,21.52712"
           style="fill:#fff5e3;fill-opacity:1;fill-rule:nonzero;stroke:none;stroke-width:0.390338"
           id="path583" /><path
           d="m 341.78617,123.14895 h -24.68495 l 2.47083,214.38596 -0.0859,-7.46326 h 24.68496 l -1.12808,-97.77179 h -24.68105 l -0.24982,-21.52712 h 24.68496 l -1.01098,-87.62379 m 2.56062,222.2942 H 319.6618 l 0.63235,54.71364 -0.39034,-33.80325 h 24.68496 l -0.24201,-20.91039 m 0.85093,73.79725 h -24.68495 l 0.24981,21.74962 h 24.68496 l -0.24982,-21.74962"
           style="fill:#a22a2a;fill-opacity:1;fill-rule:nonzero;stroke:none;stroke-width:0.390338"
           id="path585" /><path
           d="m 344.5888,366.35354 h -24.68496 l 0.39034,33.80325 0.21859,19.08361 h 24.68495 l -0.60892,-52.88686"
           style="fill:#a28278;fill-opacity:1;fill-rule:nonzero;stroke:none;stroke-width:0.390338"
           id="path587" /><path
           d="m 344.17114,330.07165 h -24.68496 l 0.0859,7.46326 0.0898,7.90824 h 24.68496 l -0.17565,-15.3715"
           style="fill:#a28278;fill-opacity:1;fill-rule:nonzero;stroke:none;stroke-width:0.390338"
           id="path589" /><path
           d="m 342.79715,210.77274 h -24.68496 l 0.24982,21.52712 h 24.68105 l -0.24591,-21.52712"
           style="fill:#a28278;fill-opacity:1;fill-rule:nonzero;stroke:none;stroke-width:0.390338"
           id="path591" /><path
           d="m 248.10122,165.27068 h -28.73276 c -13.91554,0 -25.1963,-11.27568 -25.1963,-25.192 V 73.085407 h 79.12145 v 66.993273 c 0,13.91632 -11.28076,25.192 -25.19239,25.192"
           style="fill:#664249;fill-opacity:1;fill-rule:nonzero;stroke:none;stroke-width:0.390338"
           id="path593" /><path
           d="m 224.23597,109.97974 v 55.29094 h -13.89212 c -8.93093,0 -16.17169,-6.95933 -16.17169,-15.54364 V 73.085407 h 79.12145 v 36.894333 h -49.05764"
           style="fill:#3f262c;fill-opacity:1;fill-rule:nonzero;stroke:none;stroke-width:0.390338"
           id="path595" /><path
           d="m 373.47379,195.74864 h -46.70781 c -13.91164,0 -25.1924,-11.28154 -25.1924,-25.1963 V 86.882674 h 97.0926 v 83.669666 c 0,13.91476 -11.27685,25.1963 -25.19239,25.1963"
           style="fill:#664249;fill-opacity:1;fill-rule:nonzero;stroke:none;stroke-width:0.390338"
           id="path597" /><path
           d="m 333.55785,111.07307 v 84.67557 h -15.81258 c -8.93092,0 -16.17169,-6.95972 -16.17169,-15.54754 V 86.882674 h 97.0926 v 24.190396 h -65.10833"
           style="fill:#3f262c;fill-opacity:1;fill-rule:nonzero;stroke:none;stroke-width:0.390338"
           id="path599" /><path
           d="m 694.91689,201.22118 c 0,28.88499 -116.89053,28.88499 -116.89053,0 v -323.56694 h 116.89053 v 323.56694"
           style="fill:#fff5e3;fill-opacity:1;fill-rule:nonzero;stroke:none;stroke-width:0.390338"
           id="path601" /><path
           d="M 578.02636,92.094463 H 694.91728 V 126.52959 H 578.02636 Z"
           style="fill:#95cbdb;fill-opacity:1;fill-rule:nonzero;stroke:none;stroke-width:0.390338"
           id="path603" /><path
           d="m 694.91689,201.22118 c 0,0.0273 0,0.0507 0,0.0781 0,-0.0273 0,-0.0507 0,-0.0781 m 0,0.10148 c -0.004,0.0195 -0.004,0.0351 -0.004,0.0546 0,-0.0195 0,-0.0351 0.004,-0.0546 m -0.004,0.082 c 0,0.0195 0,0.0351 0,0.0546 0,-0.0195 0,-0.039 0,-0.0546 m 0,0.0742 c 0,0.0273 0,0.0507 -0.004,0.0742 0.004,-0.0234 0.004,-0.0468 0.004,-0.0742 m -0.004,0.10149 c 0,0.0156 0,0.0351 0,0.0507 0,-0.0195 0,-0.0351 0,-0.0507 m -0.004,0.082 c 0,0.0156 0,0.0273 0,0.0429 0,-0.0156 0,-0.0312 0,-0.0429 m -0.004,0.0742 c 0,0.0156 0,0.0312 0,0.0429 0,-0.0156 0,-0.0273 0,-0.0429 m -0.004,0.1171 c 0,0.008 0,0.0156 -0.004,0.0234 0.004,-0.008 0.004,-0.0156 0.004,-0.0234 m -0.004,0.0742 c -0.004,0.008 -0.004,0.0117 -0.004,0.0195 0,-0.008 0.004,-0.0117 0.004,-0.0195 m -0.008,0.0703 c 0,0.008 0,0.008 0,0.0117 0,0 0,-0.008 0,-0.0117"
           style="fill:#d7cbcb;fill-opacity:1;fill-rule:nonzero;stroke:none;stroke-width:0.390338"
           id="path605" /><path
           d="M 694.91689,-62.252094 H 683.40193 V 92.094463 h 11.51496 V -62.252094 m 0,188.781764 h -11.51496 v 88.24013 c 6.76455,-3.27103 11.08949,-7.51791 11.48373,-12.76014 0,-0.004 0,-0.004 0,-0.0117 0.004,-0.0156 0.004,-0.0312 0.004,-0.0507 0,-0.008 0,-0.0117 0.004,-0.0195 0,-0.0195 0,-0.0351 0,-0.0508 0.004,-0.008 0.004,-0.0156 0.004,-0.0234 0,-0.0234 0.004,-0.0507 0.004,-0.0742 0,-0.0117 0,-0.0273 0,-0.0429 0.004,-0.008 0.004,-0.0195 0.004,-0.0312 0,-0.0156 0,-0.0273 0,-0.0429 0,-0.0117 0.004,-0.0234 0.004,-0.0312 0,-0.0156 0,-0.0351 0,-0.0507 0,-0.008 0,-0.0195 0,-0.0273 0.004,-0.0234 0.004,-0.0468 0.004,-0.0742 0,-0.008 0,-0.0117 0,-0.0195 0,-0.0195 0,-0.0351 0,-0.0546 0,-0.0117 0,-0.0195 0,-0.0273 0,-0.0195 0,-0.0351 0.004,-0.0546 0,-0.008 0,-0.0156 0,-0.0234 0,-0.0273 0,-0.0507 0,-0.0781 v 0 -74.69151"
           style="fill:#d7c3b5;fill-opacity:1;fill-rule:nonzero;stroke:none;stroke-width:0.390338"
           id="path607" /><path
           d="m 683.40193,92.094463 h 11.51496 v 34.435127 h -11.51496 z"
           style="fill:#7da2ae;fill-opacity:1;fill-rule:nonzero;stroke:none;stroke-width:0.390338"
           id="path609" /><path
           d="m 578.02636,201.22118 c 0,0.0273 0,0.0507 0,0.0781 0,-0.0273 0,-0.0507 0,-0.0781 m 0.004,0.10539 c 0,0.0156 0,0.0351 0,0.0507 0,-0.0156 0,-0.0351 0,-0.0507 m 0,0.0781 c 0,0.0156 0,0.0351 0,0.0546 0,-0.0195 0,-0.039 0,-0.0546 m 0,0.0781 c 0,0.0234 0,0.0507 0.004,0.0742 -0.004,-0.0234 -0.004,-0.0507 -0.004,-0.0742 m 0.004,0.0781 c 0,0.0234 0,0.0507 0,0.0781 0,-0.0273 0,-0.0546 0,-0.0781 m 0.004,0.0976 c 0,0.0195 0,0.039 0,0.0546 0,-0.0195 0,-0.0351 0,-0.0546 m 0.004,0.082 c 0,0.0195 0,0.0351 0,0.0507 0,-0.0156 0,-0.0312 0,-0.0507 m 0.004,0.0781 c 0,0.0234 0,0.0429 0.004,0.0664 -0.004,-0.0234 -0.004,-0.0429 -0.004,-0.0664 m 0.004,0.0781 c 0,0.0234 0.004,0.0507 0.004,0.0742 0,-0.0273 -0.004,-0.0507 -0.004,-0.0742 m 0.008,0.10149 c 0,0.0156 0,0.0312 0.004,0.0468 -0.004,-0.0156 -0.004,-0.0312 -0.004,-0.0468 m 0.004,0.082 c 0.004,0.0117 0.004,0.0273 0.004,0.0429 0,-0.0156 0,-0.0273 -0.004,-0.0429 m 0.008,0.0742 c 0,0.0156 0.004,0.0312 0.004,0.0468 0,-0.0156 -0.004,-0.0273 -0.004,-0.0468 m 0.008,0.0781 c 0,0.0234 0.004,0.0429 0.004,0.0703 0,-0.0273 -0.004,-0.0468 -0.004,-0.0703 m 0.008,0.10539 c 0.004,0.0117 0.004,0.0234 0.008,0.039 -0.004,-0.0156 -0.004,-0.0273 -0.008,-0.039 m 0.0117,0.0742 c 0,0.0156 0,0.0234 0.004,0.039 -0.004,-0.0156 -0.004,-0.0273 -0.004,-0.039 m 0.008,0.0781 c 0,0.0117 0.004,0.0234 0.004,0.0351 0,-0.0117 -0.004,-0.0234 -0.004,-0.0351 m 0.008,0.0742 c 0.004,0.0195 0.008,0.0429 0.0117,0.0664 -0.004,-0.0234 -0.008,-0.0429 -0.0117,-0.0664 m 0.0156,0.10929 c 0,0.008 0.004,0.0195 0.004,0.0273 0,-0.008 -0.004,-0.0195 -0.004,-0.0273 m 0.0117,0.0742 c 0,0.008 0.004,0.0156 0.004,0.0273 0,-0.0117 -0.004,-0.0195 -0.004,-0.0273 m 0.0117,0.0742 c 0,0.008 0,0.0117 0.004,0.0195 -0.004,-0.008 -0.004,-0.0117 -0.004,-0.0195 m 0.0312,0.19127 c 0,0.004 0,0.008 0,0.0117 0,-0.004 0,-0.008 0,-0.0117 m 0.0117,0.0663 c 0,0.004 0,0.008 0.004,0.0156 -0.004,-0.008 -0.004,-0.0117 -0.004,-0.0156 m 0.0117,0.0703 c 0,0.004 0.004,0.008 0.004,0.0117 0,-0.004 -0.004,-0.008 -0.004,-0.0117 m 0.0546,0.26153 v 0 0"
           style="fill:#d7cbcb;fill-opacity:1;fill-rule:nonzero;stroke:none;stroke-width:0.390338"
           id="path611" /><path
           d="M 619.60904,-62.252094 H 578.02636 V 92.094463 h 41.58268 V -62.252094 m 0,188.781764 h -41.58268 v 74.69151 0 c 0,0.0273 0,0.0507 0,0.0781 0,0.008 0,0.0156 0.004,0.0273 0,0.0156 0,0.0351 0,0.0507 0,0.008 0,0.0195 0,0.0273 0,0.0156 0,0.0351 0,0.0546 0,0.008 0,0.0156 0,0.0234 0,0.0234 0,0.0507 0.004,0.0742 0,0 0,0 0,0.004 0,0.0234 0,0.0507 0,0.0781 0.004,0.008 0.004,0.0117 0.004,0.0195 0,0.0195 0,0.0351 0,0.0546 0,0.0117 0.004,0.0195 0.004,0.0273 0,0.0195 0,0.0351 0,0.0507 0,0.0117 0.004,0.0195 0.004,0.0273 0,0.0234 0,0.0429 0.004,0.0664 0,0.004 0,0.008 0,0.0117 0,0.0234 0.004,0.0468 0.004,0.0742 0,0.008 0,0.0195 0.004,0.0273 0,0.0156 0,0.0312 0.004,0.0468 0,0.0117 0,0.0234 0,0.0351 0.004,0.0156 0.004,0.0273 0.004,0.0429 0,0.0117 0.004,0.0195 0.004,0.0312 0,0.0195 0.004,0.0312 0.004,0.0468 0,0.0117 0,0.0195 0.004,0.0312 0,0.0234 0.004,0.0429 0.004,0.0703 0.004,0.0117 0.004,0.0234 0.004,0.0351 0.004,0.0117 0.004,0.0234 0.008,0.039 0,0.0117 0,0.0234 0.004,0.0351 0,0.0117 0,0.0234 0.004,0.039 0,0.0117 0,0.0234 0.004,0.039 0,0.0117 0.004,0.0234 0.004,0.0351 0.004,0.0117 0.004,0.0234 0.004,0.039 0.004,0.0234 0.008,0.0429 0.0117,0.0664 0,0.0117 0.004,0.0273 0.004,0.0429 0,0.008 0.004,0.0195 0.004,0.0273 0.004,0.0156 0.004,0.0312 0.008,0.0468 0,0.008 0.004,0.0156 0.004,0.0273 0,0.0156 0.004,0.0312 0.008,0.0468 0,0.008 0,0.0117 0.004,0.0195 0.008,0.0585 0.0156,0.1132 0.0273,0.17175 0,0.004 0,0.008 0,0.0117 0.004,0.0195 0.008,0.0351 0.0117,0.0546 0,0.004 0,0.008 0.004,0.0156 0,0.0156 0.004,0.0351 0.008,0.0546 0,0.004 0.004,0.008 0.004,0.0117 0.0156,0.082 0.0312,0.16785 0.0507,0.24982 v 0 c 2.22493,10.31272 20.17266,16.5269 41.34848,18.64643 v -95.52773"
           style="fill:#d7c3b5;fill-opacity:1;fill-rule:nonzero;stroke:none;stroke-width:0.390338"
           id="path613" /><path
           d="m 578.02636,92.094463 h 41.58307 v 34.435127 h -41.58307 z"
           style="fill:#7da2ae;fill-opacity:1;fill-rule:nonzero;stroke:none;stroke-width:0.390338"
           id="path615" /><path
           d="M 668.86185,64.482754 H 352.70392 V -184.623 H 668.86185 V 64.482754"
           style="fill:#c4b09d;fill-opacity:1;fill-rule:nonzero;stroke:none;stroke-width:0.390338"
           id="path639" /><path
           d="m 477.98671,69.034092 h -43.5773 V -184.623 h 43.5773 V 69.034092"
           style="fill:#664249;fill-opacity:1;fill-rule:nonzero;stroke:none;stroke-width:0.390338"
           id="path641" /><path
           d="M 148.03034,-184.623 H 464.19335 V 123.1493 H 148.03034 Z"
           style="fill:#fff5e3;fill-opacity:1;fill-rule:nonzero;stroke:none;stroke-width:0.390338"
           id="path643" /><path
           d="m 148.03034,-125.69407 h 316.16301 v 68.56672 H 148.03034 Z"
           style="fill:#c4b09d;fill-opacity:1;fill-rule:nonzero;stroke:none;stroke-width:0.390338"
           id="path645" /><path
           d="M 148.03034,-184.623 H 250.26837 V 123.1493 H 148.03034 Z"
           style="fill:#c4b09d;fill-opacity:1;fill-rule:nonzero;stroke:none;stroke-width:0.390338"
           id="path647" /><path
           d="M 224.68096,-184.623 H 715.51111 V -64.809235 H 224.68096 Z"
           style="fill:#fff5e3;fill-opacity:1;fill-rule:nonzero;stroke:none;stroke-width:0.390338"
           id="path649" /><path
           d="m 224.68096,-88.284496 h 490.83015 v 19.376598 H 224.68096 Z"
           style="fill:#eddcc0;fill-opacity:1;fill-rule:nonzero;stroke:none;stroke-width:0.390338"
           id="path651" /><path
           d="M 144.50949,-184.623 H 310.39521 V -64.809235 H 144.50949 Z"
           style="fill:#c4b09d;fill-opacity:1;fill-rule:nonzero;stroke:none;stroke-width:0.390338"
           id="path653" /><path
           d="M 579.04905,-140.35164 H 488.91226 V -184.623 h 90.13679 v 44.27136"
           style="fill:#c4b09d;fill-opacity:1;fill-rule:nonzero;stroke:none;stroke-width:0.390338"
           id="path659" /><path
           d="m 566.73779,-146.03886 h -76.06511 v -39.35416 h 76.06511 v 39.35416"
           style="fill:#eddcc0;fill-opacity:1;fill-rule:nonzero;stroke:none;stroke-width:0.390338"
           id="path661" /><path
           d="M 681.82106,-153.88075 H 663.27221 V -184.623 h 18.54885 v 30.74225"
           style="fill:#c4b09d;fill-opacity:1;fill-rule:nonzero;stroke:none;stroke-width:0.390338"
           id="path663" /><path
           d="M 655.80896,-153.88075 H 637.26011 V -184.623 h 18.54885 v 30.74225"
           style="fill:#c4b09d;fill-opacity:1;fill-rule:nonzero;stroke:none;stroke-width:0.390338"
           id="path665" /><path
           d="m 626.70538,-153.88075 h -18.54885 v -12.29575 h 18.54885 v 12.29575"
           style="fill:#c4b09d;fill-opacity:1;fill-rule:nonzero;stroke:none;stroke-width:0.390338"
           id="path667" /><path
           d="M 440.02637,-140.35164 H 349.88568 V -184.623 h 90.14069 v 44.27136"
           style="fill:#c4b09d;fill-opacity:1;fill-rule:nonzero;stroke:none;stroke-width:0.390338"
           id="path669" /><path
           d="M 428.72999,-147.11229 H 351.65001 V -184.623 h 77.07998 v 37.51071"
           style="fill:#eddcc0;fill-opacity:1;fill-rule:nonzero;stroke:none;stroke-width:0.390338"
           id="path671" /><path
           d="M 226.59751,-80.084282 H 719.34813 V -62.25225 H 226.59751 Z"
           style="fill:#ffc043;fill-opacity:1;fill-rule:nonzero;stroke:none;stroke-width:0.390338"
           id="path675" /><path
           d="m 303.35742,-80.084282 h -67.30983 v 17.832188 h 67.30983 v -17.832188"
           style="fill:#a26524;fill-opacity:1;fill-rule:nonzero;stroke:none;stroke-width:0.390338"
           id="path677" /><path
           d="M 716.59271,-184.21436 H 145.01826 V -196.51 h 571.57445 v 12.29564"
           style="fill:#ff5050;fill-opacity:1;fill-rule:nonzero;stroke:none;stroke-width:0.281181"
           id="path683" /><path
           d="m 320.5557,74.876666 0.004,20.442767 H 280.82713 V 74.876666 h 39.72857"
           style="fill:#c4b09d;fill-opacity:1;fill-rule:nonzero;stroke:none;stroke-width:0.390338"
           id="path695" /><path
           d="M 380.14856,74.876666 V 95.319433 H 340.41999 V 74.876666 h 39.72857"
           style="fill:#c4b09d;fill-opacity:1;fill-rule:nonzero;stroke:none;stroke-width:0.390338"
           id="path697" /><path
           d="m 442.51282,74.876666 v 20.438083 l -39.72857,0.0047 V 74.876666 h 39.72857"
           style="fill:#c4b09d;fill-opacity:1;fill-rule:nonzero;stroke:none;stroke-width:0.390338"
           id="path699" /><path
           d="m 615.90473,18.305412 v -68.110807 h 23.27194 v 68.098707 l -23.27194,0.0121"
           style="fill:#6a5472;fill-opacity:1;fill-rule:nonzero;stroke:none;stroke-width:0.390338"
           id="path701" /><path
           d="m 561.90932,18.305412 v -68.110807 h 23.26803 v 68.098707 l -23.26803,0.0121"
           style="fill:#6a5472;fill-opacity:1;fill-rule:nonzero;stroke:none;stroke-width:0.390338"
           id="path703" /><path
           d="m 507.91,18.305412 v -68.110807 h 23.26803 v 68.098707 l -23.26803,0.0121"
           style="fill:#6a5472;fill-opacity:1;fill-rule:nonzero;stroke:none;stroke-width:0.390338"
           id="path705" /><path
           d="M 280.82713,53.970959 V 19.066181 h 161.68569 v 34.900094 l -161.68569,0.0047"
           style="fill:#c4b09d;fill-opacity:1;fill-rule:nonzero;stroke:none;stroke-width:0.390338"
           id="path707" /></g></g></g></svg>
