<?xml version="1.0" encoding="UTF-8" standalone="no"?>
<svg
   xmlns:dc="http://purl.org/dc/elements/1.1/"
   xmlns:cc="http://creativecommons.org/ns#"
   xmlns:rdf="http://www.w3.org/1999/02/22-rdf-syntax-ns#"
   xmlns:svg="http://www.w3.org/2000/svg"
   xmlns="http://www.w3.org/2000/svg"
   xmlns:sodipodi="http://sodipodi.sourceforge.net/DTD/sodipodi-0.dtd"
   xmlns:inkscape="http://www.inkscape.org/namespaces/inkscape"
   version="1.1"
   id="svg2"
   xml:space="preserve"
   width="666.66669"
   height="666.66669"
   viewBox="0 0 666.66669 666.66669"
   sodipodi:docname="5.svg"
   inkscape:version="1.0.1 (3bc2e813f5, 2020-09-07)"><metadata
     id="metadata8"><rdf:RDF><cc:Work
         rdf:about=""><dc:format>image/svg+xml</dc:format><dc:type
           rdf:resource="http://purl.org/dc/dcmitype/StillImage" /><dc:title></dc:title></cc:Work></rdf:RDF></metadata><defs
     id="defs6"><clipPath
       clipPathUnits="userSpaceOnUse"
       id="clipPath20"><path
         d="M 0,500 H 500 V 0 H 0 Z"
         id="path18" /></clipPath></defs><sodipodi:namedview
     pagecolor="#ffffff"
     bordercolor="#666666"
     borderopacity="1"
     objecttolerance="10"
     gridtolerance="10"
     guidetolerance="10"
     inkscape:pageopacity="0"
     inkscape:pageshadow="2"
     inkscape:window-width="1366"
     inkscape:window-height="715"
     id="namedview4"
     showgrid="false"
     inkscape:zoom="0.55770556"
     inkscape:cx="249.79688"
     inkscape:cy="256.48141"
     inkscape:window-x="-8"
     inkscape:window-y="-8"
     inkscape:window-maximized="1"
     inkscape:current-layer="g10" /><g
     id="g10"
     inkscape:groupmode="layer"
     inkscape:label="3651551"
     transform="matrix(1.3333333,0,0,-1.3333333,0,666.66667)"><g
       id="g1489"
       transform="matrix(5.6110457,0,0,5.6110457,-444.99793,-1406.5431)"><g
         id="g384"
         transform="translate(141.903,323.8528)"><path
           d="m 0,0 c -7.482,0.184 -18.649,-7.347 -27.789,-18.74 -5.702,-7.109 -9.843,-14.75 -11.659,-21.515 -1.707,-6.358 -1.102,-11.276 1.661,-13.492 1.095,-0.878 2.513,-1.345 4.216,-1.387 7.482,-0.184 18.649,7.347 27.789,18.741 5.703,7.109 9.843,14.75 11.659,21.515 C 7.584,-8.52 6.978,-3.602 4.215,-1.387 3.121,-0.508 1.703,-0.042 0,0 m -33.627,-57.395 c -2.21,0.054 -4.086,0.688 -5.575,1.883 -3.547,2.845 -4.409,8.472 -2.431,15.844 1.895,7.06 6.185,14.995 12.08,22.343 9.558,11.916 21.457,19.787 29.609,19.586 2.209,-0.054 4.085,-0.687 5.575,-1.883 3.546,-2.844 4.41,-8.47 2.431,-15.843 -1.895,-7.06 -6.186,-14.995 -12.08,-22.344 -9.559,-11.916 -21.458,-19.787 -29.609,-19.586"
           style="fill:#547b8f;fill-opacity:1;fill-rule:nonzero;stroke:none"
           id="path386" /></g><g
         id="g388"
         transform="translate(111.8001,325.0595)"><path
           d="m 0,0 c -1.576,0.039 -2.929,-0.318 -4.021,-1.062 -6.322,-4.302 -3.017,-20.643 7.217,-35.685 8.239,-12.109 19.145,-20.694 26.52,-20.875 1.576,-0.039 2.929,0.318 4.022,1.061 2.928,1.993 3.918,6.848 2.716,13.321 -1.279,6.887 -4.807,14.829 -9.933,22.364 C 18.281,-8.767 7.375,-0.182 0,0 m 29.661,-59.884 c -8.187,0.202 -19.574,8.989 -28.335,21.865 -11.3,16.609 -14.208,33.664 -6.621,38.827 1.493,1.015 3.292,1.504 5.351,1.453 8.186,-0.201 19.574,-8.988 28.334,-21.865 5.3,-7.788 8.954,-16.035 10.289,-23.223 1.393,-7.504 0.091,-13.047 -3.668,-15.604 -1.492,-1.015 -3.292,-1.504 -5.35,-1.453"
           style="fill:#547b8f;fill-opacity:1;fill-rule:nonzero;stroke:none"
           id="path390" /></g><g
         id="g392"
         transform="translate(125.7107,310.3817)"><path
           d="m 0,0 c -18.187,0.448 -33.711,-5.632 -33.899,-13.276 -0.188,-7.644 15.018,-14.479 33.205,-14.927 18.187,-0.448 33.712,5.632 33.9,13.276 C 33.394,-7.283 18.188,-0.448 0,0 m -0.75,-30.464 c -20.082,0.494 -35.636,8.069 -35.41,17.244 0.225,9.176 16.133,15.976 36.216,15.481 C 20.138,1.767 35.693,-5.808 35.467,-14.983 35.241,-24.159 19.333,-30.959 -0.75,-30.464"
           style="fill:#547b8f;fill-opacity:1;fill-rule:nonzero;stroke:none"
           id="path394" /></g><g
         id="g396"
         transform="translate(133.3288,296.3288)"><path
           d="m 0,0 c -0.097,-3.941 -3.371,-7.057 -7.312,-6.96 -3.941,0.097 -7.057,3.37 -6.96,7.311 0.097,3.941 3.371,7.058 7.312,6.961 C -3.019,7.215 0.097,3.941 0,0"
           style="fill:#2f1933;fill-opacity:1;fill-rule:nonzero;stroke:none"
           id="path398" /></g><g
         id="g400"
         transform="translate(94.8791,298.3328)"><path
           d="m 0,0 c -0.057,-2.301 -1.968,-4.121 -4.269,-4.064 -2.301,0.057 -4.121,1.968 -4.064,4.269 0.056,2.301 1.968,4.121 4.269,4.064 C -1.763,4.212 0.057,2.301 0,0"
           style="fill:#2f1933;fill-opacity:1;fill-rule:nonzero;stroke:none"
           id="path402" /></g><g
         id="g404"
         transform="translate(150.993,323.2463)"><path
           d="m 0,0 c -0.057,-2.301 -1.968,-4.121 -4.269,-4.064 -2.301,0.057 -4.121,1.968 -4.064,4.269 0.056,2.301 1.968,4.121 4.269,4.064 C -1.763,4.213 0.057,2.301 0,0"
           style="fill:#2f1933;fill-opacity:1;fill-rule:nonzero;stroke:none"
           id="path406" /></g><g
         id="g408"
         transform="translate(148.6844,267.0066)"><path
           d="m 0,0 c -0.057,-2.301 -1.968,-4.121 -4.269,-4.064 -2.301,0.057 -4.121,1.968 -4.064,4.269 0.056,2.301 1.968,4.121 4.269,4.064 C -1.763,4.212 0.057,2.301 0,0"
           style="fill:#2f1933;fill-opacity:1;fill-rule:nonzero;stroke:none"
           id="path410" /></g></g><g
       id="g464"
       transform="translate(457.8382,153.6788)"><path
         d="m 0,0 c 0,0 -2.37,-5.574 -3.036,-5.715 -0.666,-0.14 -3.141,-0.942 -3.141,-0.942 l 3.731,-2.808 1.572,-5.793 c 0,0 2.025,5.732 2.698,6.241 1.106,0.836 4.171,1.542 4.171,1.542 0,0 -4.253,1.301 -4.791,2.303 C 0.665,-4.171 0,0 0,0"
         style="fill:#ffffff;fill-opacity:1;fill-rule:nonzero;stroke:none"
         id="path466" /></g></g></svg>
