<?xml version="1.0" encoding="UTF-8" standalone="no"?>
<svg
   xmlns:dc="http://purl.org/dc/elements/1.1/"
   xmlns:cc="http://creativecommons.org/ns#"
   xmlns:rdf="http://www.w3.org/1999/02/22-rdf-syntax-ns#"
   xmlns:svg="http://www.w3.org/2000/svg"
   xmlns="http://www.w3.org/2000/svg"
   xmlns:sodipodi="http://sodipodi.sourceforge.net/DTD/sodipodi-0.dtd"
   xmlns:inkscape="http://www.inkscape.org/namespaces/inkscape"
   version="1.1"
   id="svg2"
   xml:space="preserve"
   width="1000"
   height="1000"
   viewBox="0 0 1000 1000"
   sodipodi:docname="6.svg"
   inkscape:version="1.0.1 (3bc2e813f5, 2020-09-07)"><metadata
     id="metadata8"><rdf:RDF><cc:Work
         rdf:about=""><dc:format>image/svg+xml</dc:format><dc:type
           rdf:resource="http://purl.org/dc/dcmitype/StillImage" /><dc:title></dc:title></cc:Work></rdf:RDF></metadata><defs
     id="defs6"><clipPath
       clipPathUnits="userSpaceOnUse"
       id="clipPath42"><path
         d="m 28303.2,16247.2 c -3.1,-6.4 -4.9,-12.7 -5.8,-18.9 -122.3,-10.8 -244.3,-25.5 -365.7,-44.4 -337.2,-52.6 -668.6,-136.9 -989.5,-253 -70.6,-25.6 -140.4,-52.8 -207.8,-85.4 -51.5,50.8 -103.9,100.6 -157.7,148.9 -329.8,295.9 -340.7,305.5 -429.3,-38 -22.3,-86.6 -43.1,-173.6 -61.7,-261 -36.4,-171.5 -62.8,-345.6 -75.1,-520.6 -14.4,-206.4 -8,-414.9 26.3,-618.6 8.8,-177.4 37.9,-355.4 100.7,-521.8 153.9,-407.6 475.2,-729.6 848,-944.5 169,-97.5 356.6,-197.3 553.5,-223.6 313.7,-530 834.2,-1188 1263,-1519.6 346.3,-267.8 736.2,-482.9 1148.9,-629.8 203.8,-72.5 416.9,-124.3 633.3,-138.9 130,-8.7 218.1,66.4 309.9,147.7 79.3,70.3 156.5,143 231.6,217.8 309.4,308.4 584,650.1 815.4,1020.8 2838.6,645.8 -939.3,2280.5 -2423.8,2482.4 53.2,169.4 77.5,348.3 78.8,525.4 3.3,460.1 -150.7,902 -368.1,1302.6 -23.8,43.7 -48.1,87.2 -73,130.4 -0.8,1.8 -1.6,3.6 -2.4,5.4 -45.6,105.6 -98.1,208.1 -160,305.1 -224,350.3 -273.6,364.6 -422.6,85.9 -99.2,-185.8 -176.8,-368.2 -266.9,-554.3 z"
         id="path40" /></clipPath><clipPath
       clipPathUnits="userSpaceOnUse"
       id="clipPath66"><path
         d="m 32280,13203.8 c -25.6,31.4 499.8,-708 464.6,-729.1 -31.6,-18.9 -55.2,-65.4 -35.3,-101.6 12.9,-23.4 22.7,-47.4 30.1,-71.7 -35.5,-18.2 -60.5,-57.8 -43.1,-105.7 19.7,-53.7 32,-109.8 37.2,-166.7 -6.6,-24.2 -14.4,-48.2 -22.9,-71.9 -55.5,-152.1 -129.9,-299.9 -211.4,-439.7 -24.5,-42.1 -50.2,-83.7 -76.5,-124.8 -5.5,16.8 -15.6,32.1 -29.6,42.7 -39.7,29.9 -89.3,17.5 -120.4,-17.2 -60.1,-67.2 -116.6,-137.4 -169.6,-210 -16.4,30.4 -50.7,50.6 -91.8,33.2 -353.6,-149.9 -600.1,-456.1 -794.8,-776.1 -44.1,-72.5 -92.8,-147 -135.1,-224.3 -7.9,63 -18.4,125.6 -31.9,187.6 -14.8,141.1 -54.7,281.6 -93.6,415 -59.3,203.4 -137.7,402.1 -240.2,587.7 -101.2,183.1 -222,354.7 -369.3,503.8 -134.3,135.9 -302,290.6 -503.3,303.5 -180.2,11.4 -419.5,-148.2 -375.3,-351.3 36.5,-167.8 163.4,-313.3 272.6,-439.9 221.3,-256.3 443.7,-516.9 603.4,-817.5 77.3,-145.5 139.7,-298.9 178.1,-459.1 -97.6,6.8 -237.2,-110.7 -285.6,-162.1 -92.7,-98.4 -168.4,-300.6 -48.1,-407.8 92.9,-82.7 215.3,-47.1 314.1,18.1 9.9,-39.9 30.7,-76.7 64.7,-104.9 91.5,-75.7 224.7,-49.1 308.2,24.5 61.2,53.8 110.2,125.7 147.5,201 24.1,-40.5 58.1,-75.6 103,-102.1 66.7,-39.3 161.6,-66.2 233.4,-22.9 4.6,2.7 9,6.5 12.9,11 20.8,-28.9 46.3,-53.7 78.3,-69 73,-34.8 152,-8.8 205.5,47.6 25.2,26.6 44.6,58.2 59.4,92.5 88.9,-43.2 186,-15.4 251.7,55.7 65.8,71 87.9,169.8 80.1,264.1 -4.9,59.6 -23.7,119.7 -53,173.2 7.4,40.8 17.2,81 29.2,120.6 34.3,82.5 70.2,164 110.5,243.9 9.7,19.4 19.7,38.7 29.8,57.9 82.2,133.5 181.7,258.2 279.3,379.1 124.5,154.2 265.7,294.8 387.3,451 682.1,660.4 137.9,1634.7 -550.1,1761.7 z"
         id="path64" /></clipPath><clipPath
       clipPathUnits="userSpaceOnUse"
       id="clipPath146"><path
         d="M 8060.2,17564.5 V 11471 h 7756.1 V 29173.7 H 8060.2 Z"
         clip-rule="evenodd"
         id="path144" /></clipPath><clipPath
       clipPathUnits="userSpaceOnUse"
       id="clipPath172"><path
         d="m 11479.3,16625.9 c 6.1,-3.1 11.3,-6.9 15.6,-11.1 100,64.2 202.2,125.1 306.4,182.5 289.4,159.3 593.2,290.9 907.7,391.9 69.3,22.2 138.8,42.7 209.7,57.6 9.5,69.3 20.1,138.6 32.8,207.4 77.4,421.9 80,435.7 351.2,225 68.4,-53.2 135.8,-107.4 201.8,-163.4 129.5,-109.8 252.7,-227.6 365.7,-354.3 133.2,-149.6 251.7,-313.1 346,-489.4 98.2,-141.2 181.4,-294.7 231.7,-459.3 123.4,-403.4 67.8,-840.2 -90.5,-1225.5 -71.8,-174.8 -156.4,-362.3 -291.6,-498.9 73.4,-591.7 64.2,-1403.9 -67.9,-1911.6 -101.2,-388.6 -260.4,-763.9 -471.6,-1105.8 H 9959.41 c 42.29,828.3 1023.79,2415.5 1655.49,3057 -141.1,98.2 -265.5,220.9 -371.3,355.8 -274.9,350.5 -418.5,780.1 -489.1,1215.7 -7.7,47.5 -14.8,95.2 -21.3,143.1 -0.4,1.8 -0.9,3.7 -1.4,5.6 -27.5,107.8 -48,217.4 -57.9,328.3 -35.8,401 -6.3,441.3 272.8,315.9 185.9,-83.5 353.3,-177.3 532.6,-266.5 z"
         id="path170" /></clipPath><clipPath
       clipPathUnits="userSpaceOnUse"
       id="clipPath192"><path
         d="M 8060.2,17564.5 V 11471 h 7756.1 V 29173.7 H 8060.2 Z"
         id="path190" /></clipPath></defs><sodipodi:namedview
     pagecolor="#ffffff"
     bordercolor="#666666"
     borderopacity="1"
     objecttolerance="10"
     gridtolerance="10"
     guidetolerance="10"
     inkscape:pageopacity="0"
     inkscape:pageshadow="2"
     inkscape:window-width="1366"
     inkscape:window-height="715"
     id="namedview4"
     showgrid="false"
     inkscape:zoom="0.32854428"
     inkscape:cx="684.1558"
     inkscape:cy="300.72035"
     inkscape:window-x="-8"
     inkscape:window-y="-8"
     inkscape:window-maximized="1"
     inkscape:current-layer="g10" /><g
     id="g10"
     inkscape:groupmode="layer"
     inkscape:label="ink_ext_XXXXXX"
     transform="matrix(1.3333333,0,0,-1.3333333,0,4526.68)"><g
       id="g446"
       transform="matrix(0.29525098,0,0,0.29525098,-684.71481,2421.4064)"><path
         d="m 3050.62,1482.22 c 9.77,-26.54 29.32,-49 51.45,-66.15 46.02,-35.69 104.68,-55.27 142.67,-100.57 5.63,-9.41 10.93,-19.06 16.01,-28.83 1.25,-2.38 3.24,-3.37 5.18,-3.33 3.19,-6.14 6.09,-12.44 8.73,-18.85 6.4,-15.52 10.53,-31.71 15.54,-47.69 1.17,-3.75 7.42,-2.89 7.62,1 1.47,29.09 -8.69,59.33 -23.13,84.25 -5.4,9.31 -11.59,17.93 -18.42,25.95 -20.96,40.09 -54.95,73.78 -91.76,98.81 -21.54,14.66 -43.23,29.08 -54.04,53.76 -8.18,18.71 -10.36,40.36 -5.17,60.19 2,-4.99 5.19,-9.62 9.68,-13.47 44.03,-37.99 77.93,25.89 54.2,61.55 -11.25,16.91 -34.7,40.91 -77.56,19.79 -36.51,-17.99 -65,-61.22 -41,-126.41 v 0"
         style="fill:#e8712b;fill-opacity:1;fill-rule:nonzero;stroke:none;stroke-width:0.1"
         id="path16" /><path
         d="m 3174.33,1140.02 c -3.02,2.88 -8.2,3.68 -11.58,0.75 -7.53,-6.52 -14.63,-13.49 -21.53,-20.67 -12.09,-10.7 -25.15,-20.32 -39.65,-26.75 -9.72,-2.71 -19.43,-5.42 -29.14,-8.14 -4.21,-1.17 -6.24,-6.65 -5.16,-10.49 0.78,-2.75 2.74,-4.91 5.24,-5.95 -1.81,-2.11 -2.66,-4.82 -1.79,-7.89 0.68,-2.42 2.38,-4.54 4.56,-5.74 -4.77,-4.32 -2.72,-11.16 2.2,-14.09 0.27,-2.04 1.24,-3.9 2.73,-5.24 -0.01,-1.16 0.17,-2.33 0.53,-3.4 -0.53,-3.69 1.03,-7.52 5.43,-8.98 12.71,-4.2 26.8,-4.15 38.93,0.94 3.6,0.42 7.19,1.03 10.76,1.87 4.32,1.01 7.77,4.12 7.69,8.84 -0.02,1.62 -0.54,3.34 -1.44,4.82 0,0.36 -0.02,0.71 -0.06,1.06 0.26,0.08 0.52,0.14 0.78,0.22 0.77,0.21 1.45,0.52 2.06,0.9 0.57,0.14 1.14,0.28 1.71,0.44 2.58,0.69 4.25,3.21 4.76,5.83 5.34,3.82 10.2,8.4 14.4,13.79 4.78,6.15 -0.89,14.08 -7.96,13.64 -1.66,-0.1 -3.31,-0.22 -4.97,-0.33 4.57,3.91 8.83,8.24 12.71,12.98 1.34,1.63 1.83,3.67 1.68,5.69 3.07,2.86 4.02,7.42 1.8,11.13 -2.45,4.09 -6.65,5.08 -11.06,3.85 -1.34,-0.38 -2.68,-0.75 -4.01,-1.13 6.76,6.05 13.26,12.39 19.58,18.75 0.01,0.01 0.03,0.03 0.05,0.04 v 0 c 0.55,0.57 1.11,1.13 1.67,1.69 3.05,3.09 1.88,8.88 -0.92,11.57 v 0"
         style="fill:#e8712b;fill-opacity:1;fill-rule:nonzero;stroke:none;stroke-width:0.1"
         id="path32" /><path
         d="m 3253.33,1306.82 c -4.29,6.27 -10.13,10.16 -17.47,11.93 -96.37,23.35 -178.09,-83.4 -138.24,-175.91 9.78,-22.7 28.6,-43.72 52.89,-50.78 22.64,-6.59 45.29,0.34 64.97,12.16 11.38,6.84 22.18,15.37 31.87,24.96 4.45,0.92 7.59,3.98 9.92,7.83 0.85,0.05 1.71,0.23 2.58,0.59 3.71,1.52 6.42,6.61 4.39,10.46 -0.05,0.08 -0.09,0.15 -0.12,0.22 1.47,1.94 2.89,3.89 4.27,5.87 13.78,19.91 22.26,43.14 21.79,67.53 -0.37,19.4 -8.26,36.17 -17.55,52.45 0.92,2.3 0.72,4.93 -1.31,7.13 -2.09,2.27 -4.31,4.4 -6.62,6.4 -0.69,1.15 -1.37,2.31 -2.05,3.47 -3.06,5.22 -5.89,10.7 -9.32,15.69 v 0"
         style="fill:#f69546;fill-opacity:1;fill-rule:nonzero;stroke:none;stroke-width:0.1"
         id="path56" /><g
         id="g60"
         transform="scale(0.1)"><g
           id="g62"
           clip-path="url(#clipPath66)"><path
             d="m 31269.4,10755.1 c -39.7,-45.6 -62,-70.9 -113.7,-170.7 -161,-310.1 -344.2,-849.9 -79.2,-956.9 4,-1.6 6.8,3.1 4.8,6.3 -28.4,45.5 -45.2,49.1 -56.7,102.7 -37.5,159.9 -14.3,284.9 56.8,504.4 59.8,184.9 121.7,330.1 208.5,502.6 6.5,12.7 -12.1,21.2 -20.5,11.6 v 0"
             style="fill:#e8712b;fill-opacity:1;fill-rule:nonzero;stroke:none"
             id="path68" /></g></g><path
         d="m 3097.01,1079.44 c 0,0 -16.72,39.9 -44.36,69.07 -16.81,17.74 -32.12,31.88 -41.54,40.23 -43.43,38.52 71.72,-51.21 113.65,-81.89 0,0 0.23,-54.94 -27.75,-27.41 v 0"
         style="fill:#e8712b;fill-opacity:1;fill-rule:nonzero;stroke:none;stroke-width:0.1"
         id="path92" /><path
         d="m 3116.18,1097.97 c -29.29,19.46 -55.94,98.46 -45.09,135.96 12.84,44.4 61.4,58.97 61.57,59.02 -20.02,-10.01 -91.85,-44.27 -45.62,-137.3 10.88,-21.89 23.99,-47.25 67.7,-64.67 l -38.56,6.99 v 0"
         style="fill:#e8712b;fill-opacity:1;fill-rule:nonzero;stroke:none;stroke-width:0.1"
         id="path94" /><path
         d="m 3987.04,1346.31 c 0.12,0 0.12,-0.16 0,-0.16 -0.12,0 -0.12,0.16 0,0.16 v 0"
         style="fill:#6a5651;fill-opacity:1;fill-rule:nonzero;stroke:none;stroke-width:0.1"
         id="path98" /><path
         d="m 3987.04,1346.31 c 0.12,0 0.12,-0.16 0,-0.16 -0.12,0 -0.12,0.16 0,0.16 v 0"
         style="fill:#6a5651;fill-opacity:1;fill-rule:nonzero;stroke:none;stroke-width:0.1"
         id="path100" /><path
         d="M 2978.78,950.57 H 4199.62 V 3107.03 H 2978.78 v -2156.46 0"
         style="fill:#7a3e2b;fill-opacity:1;fill-rule:evenodd;stroke:none;stroke-width:0.1"
         id="path102" /><path
         d="m 2991.47,3096.22 h 1195.47 l 2.09,-2148.37 H 2993.56 l -2.09,2148.37 v 0"
         style="fill:#a3563e;fill-opacity:1;fill-rule:evenodd;stroke:none;stroke-width:0.1"
         id="path104" /><path
         d="m 3169.69,2944.38 h 839.03 V 1937.87 h -839.03 v 1006.51 0"
         style="fill:#8a4733;fill-opacity:1;fill-rule:evenodd;stroke:none;stroke-width:0.1"
         id="path106" /><path
         d="m 3169.69,2944.38 h 837.77 l -31.41,-26.09 -1.83,-0.93 h -771.2 l -2.24,0.21 -31.09,26.5 v 0.31 0"
         style="fill:#7a3e2b;fill-opacity:1;fill-rule:evenodd;stroke:none;stroke-width:0.1"
         id="path108" /><path
         d="m 3201.4,2917.36 h 775.61 V 1964.89 H 3201.4 v 952.47 0"
         style="fill:#974c36;fill-opacity:1;fill-rule:evenodd;stroke:none;stroke-width:0.1"
         id="path110" /><path
         d="m 3169.69,1783.46 h 839.03 v -663.37 h -839.03 v 663.37 0"
         style="fill:#8a4733;fill-opacity:1;fill-rule:evenodd;stroke:none;stroke-width:0.1"
         id="path112" /><path
         d="m 3201.4,1756.45 h 775.61 V 1147.1 H 3201.4 v 609.35 0"
         style="fill:#974c36;fill-opacity:1;fill-rule:evenodd;stroke:none;stroke-width:0.1"
         id="path114" /><path
         d="m 3169.69,1937.87 h 837.77 l -31.41,26.1 -1.83,0.92 h -771.2 l -2.24,-0.21 -31.09,-26.49 v -0.32 0"
         style="fill:#7a3e2b;fill-opacity:1;fill-rule:evenodd;stroke:none;stroke-width:0.1"
         id="path116" /><path
         d="m 3169.69,1120.09 h 837.77 l -31.41,26.09 -1.83,0.92 h -771.2 l -2.24,-0.2 -31.09,-26.5 v -0.31 0"
         style="fill:#7a3e2b;fill-opacity:1;fill-rule:evenodd;stroke:none;stroke-width:0.1"
         id="path118" /><path
         d="m 3169.69,1783.46 h 837.77 l -31.41,-26.09 -1.83,-0.92 h -771.2 l -2.24,0.2 -31.09,26.5 v 0.31 0"
         style="fill:#7a3e2b;fill-opacity:1;fill-rule:evenodd;stroke:none;stroke-width:0.1"
         id="path120" /><path
         d="m 3079.62,1909.89 c 27.55,0 49.89,-22.33 49.89,-49.88 0,-27.55 -22.34,-49.88 -49.89,-49.88 -27.54,0 -49.88,22.33 -49.88,49.88 0,27.55 22.34,49.88 49.88,49.88 v 0"
         style="fill:#8a4733;fill-opacity:1;fill-rule:evenodd;stroke:none;stroke-width:0.1"
         id="path122" /><path
         d="m 3079.62,1911.32 c 26.05,0 47.18,-21.12 47.18,-47.18 0,-26.05 -21.13,-47.17 -47.18,-47.17 -26.06,0 -47.18,21.12 -47.18,47.17 0,26.06 21.12,47.18 47.18,47.18 v 0"
         style="fill:#f3a60f;fill-opacity:1;fill-rule:evenodd;stroke:none;stroke-width:0.1"
         id="path124" /><path
         d="m 3074.08,1905.78 c 20.24,0 36.64,-16.4 36.64,-36.64 0,-20.23 -16.4,-36.63 -36.64,-36.63 -20.23,0 -36.63,16.4 -36.63,36.63 0,20.24 16.4,36.64 36.63,36.64 v 0"
         style="fill:#fecc00;fill-opacity:1;fill-rule:evenodd;stroke:none;stroke-width:0.1"
         id="path126" /><path
         d="m 3054.99,1891.47 c 8.08,6.16 17.26,7.72 20.5,3.48 3.24,-4.25 -0.69,-12.7 -8.78,-18.86 -8.08,-6.17 -17.25,-7.71 -20.5,-3.47 -3.24,4.25 0.69,12.68 8.78,18.85 v 0"
         style="fill:#fffbdb;fill-opacity:1;fill-rule:evenodd;stroke:none;stroke-width:0.1"
         id="path128" /><path
         d="m 3051.36,1864.59 c 4.25,3.24 9.08,4.06 10.78,1.82 1.7,-2.23 -0.36,-6.67 -4.61,-9.91 -4.25,-3.24 -9.08,-4.06 -10.78,-1.83 -1.71,2.24 0.35,6.68 4.61,9.92 v 0"
         style="fill:#fffbdb;fill-opacity:1;fill-rule:evenodd;stroke:none;stroke-width:0.1"
         id="path130" /></g></g></svg>
