<?xml version="1.0" encoding="UTF-8" standalone="no"?>
<svg
   xmlns:dc="http://purl.org/dc/elements/1.1/"
   xmlns:cc="http://creativecommons.org/ns#"
   xmlns:rdf="http://www.w3.org/1999/02/22-rdf-syntax-ns#"
   xmlns:svg="http://www.w3.org/2000/svg"
   xmlns="http://www.w3.org/2000/svg"
   xmlns:sodipodi="http://sodipodi.sourceforge.net/DTD/sodipodi-0.dtd"
   xmlns:inkscape="http://www.inkscape.org/namespaces/inkscape"
   version="1.1"
   id="svg2"
   xml:space="preserve"
   width="1000"
   height="1000"
   viewBox="0 0 1000 1000"
   sodipodi:docname="7.svg"
   inkscape:version="1.0.1 (3bc2e813f5, 2020-09-07)"><metadata
     id="metadata8"><rdf:RDF><cc:Work
         rdf:about=""><dc:format>image/svg+xml</dc:format><dc:type
           rdf:resource="http://purl.org/dc/dcmitype/StillImage" /><dc:title></dc:title></cc:Work></rdf:RDF></metadata><defs
     id="defs6"><clipPath
       clipPathUnits="userSpaceOnUse"
       id="clipPath20"><path
         d="M 4500,0 H 0 V 4500 H 4500 V 0 M 2250,660 C 1421.58,660 750,602.941 750,532.609 c 0,-70.398 671.58,-127.41 1500,-127.41 828.42,0 1500,57.012 1500,127.41 C 3750,602.941 3078.42,660 2250,660"
         id="path18" /></clipPath><radialGradient
       fx="0"
       fy="0"
       cx="0"
       cy="0"
       r="1"
       gradientUnits="userSpaceOnUse"
       gradientTransform="matrix(3083.76,0,0,-3083.76,2250,2250)"
       spreadMethod="pad"
       id="radialGradient30"><stop
         style="stop-opacity:1;stop-color:#7dd4e5"
         offset="0"
         id="stop22" /><stop
         style="stop-opacity:1;stop-color:#7dd4e5"
         offset="0.3"
         id="stop24" /><stop
         style="stop-opacity:1;stop-color:#4cc4d2"
         offset="0.7"
         id="stop26" /><stop
         style="stop-opacity:1;stop-color:#388cb9"
         offset="1"
         id="stop28" /></radialGradient><clipPath
       clipPathUnits="userSpaceOnUse"
       id="clipPath124"><path
         d="m 2250,405.199 c -828.42,0 -1500,57.012 -1500,127.41 0,70.332 671.58,127.391 1500,127.391 828.42,0 1500,-57.059 1500,-127.391 0,-70.398 -671.58,-127.41 -1500,-127.41"
         id="path122" /></clipPath></defs><sodipodi:namedview
     pagecolor="#ffffff"
     bordercolor="#666666"
     borderopacity="1"
     objecttolerance="10"
     gridtolerance="10"
     guidetolerance="10"
     inkscape:pageopacity="0"
     inkscape:pageshadow="2"
     inkscape:window-width="1366"
     inkscape:window-height="715"
     id="namedview4"
     showgrid="false"
     inkscape:zoom="0.15491822"
     inkscape:cx="1374.2643"
     inkscape:cy="644.39071"
     inkscape:window-x="-8"
     inkscape:window-y="-8"
     inkscape:window-maximized="1"
     inkscape:current-layer="g10" /><g
     id="g10"
     inkscape:groupmode="layer"
     inkscape:label="ink_ext_XXXXXX"
     transform="matrix(1.3333333,0,0,-1.3333333,0,600)"><g
       id="g205"
       transform="matrix(2.7281624,0,0,2.7281624,-213.91067,-598.9666)"><path
         d="m 223.902,322.549 h -16.075 v 28.762 h 16.075 v -28.762"
         style="fill:#3698a1;fill-opacity:1;fill-rule:nonzero;stroke:none;stroke-width:0.1"
         id="path34" /><path
         d="m 277.603,302.339 -11.277,6.506 9.419,16.317 11.277,-6.51 -9.419,-16.313"
         style="fill:#3698a1;fill-opacity:1;fill-rule:nonzero;stroke:none;stroke-width:0.1"
         id="path36" /><path
         d="m 167.836,310.323 -11.272,-6.501 -9.422,16.315 11.273,6.51 9.421,-16.324"
         style="fill:#3698a1;fill-opacity:1;fill-rule:nonzero;stroke:none;stroke-width:0.1"
         id="path38" /><path
         d="m 313.575,227.793 c 0,-53.963 -43.747,-97.712 -97.711,-97.712 -53.966,0 -97.712,43.749 -97.712,97.712 0,53.969 43.746,97.715 97.712,97.715 53.964,0 97.711,-43.746 97.711,-97.715"
         style="fill:#f9dc06;fill-opacity:1;fill-rule:nonzero;stroke:none;stroke-width:0.1"
         id="path40" /><path
         d="m 313.575,227.793 c 0,53.969 -43.747,97.715 -97.711,97.715 V 130.081 c 53.964,0 97.711,43.749 97.711,97.712"
         style="fill:#f9e806;fill-opacity:1;fill-rule:nonzero;stroke:none;stroke-width:0.1"
         id="path42" /><path
         d="m 297.43,227.793 c 0,-45.048 -36.518,-81.57 -81.566,-81.57 -45.052,0 -81.567,36.522 -81.567,81.57 0,45.053 36.515,81.569 81.567,81.569 45.048,0 81.566,-36.516 81.566,-81.569"
         style="fill:#f8f8f8;fill-opacity:1;fill-rule:nonzero;stroke:none;stroke-width:0.1"
         id="path44" /><path
         d="m 297.43,227.793 c 0,45.053 -36.518,81.569 -81.566,81.569 V 146.223 c 45.048,0 81.566,36.522 81.566,81.57"
         style="fill:#ffffff;fill-opacity:1;fill-rule:nonzero;stroke:none;stroke-width:0.1"
         id="path46" /><path
         d="m 215.864,244.503 c -9.214,0 -16.706,-7.494 -16.706,-16.71 0,-9.209 7.492,-16.709 16.706,-16.709 9.212,0 16.707,7.5 16.707,16.709 0,9.216 -7.495,16.71 -16.707,16.71 z m 0,-36.804 c -11.082,0 -20.093,9.016 -20.093,20.094 0,11.082 9.011,20.092 20.093,20.092 11.08,0 20.093,-9.01 20.093,-20.092 0,-11.078 -9.013,-20.094 -20.093,-20.094"
         style="fill:#c8c7c5;fill-opacity:1;fill-rule:nonzero;stroke:none;stroke-width:0.1"
         id="path48" /><path
         d="m 219.268,225.259 -5.981,5.979 56.488,50.51 z"
         style="fill:#286c84;fill-opacity:1;fill-rule:nonzero;stroke:none;stroke-width:0.1"
         id="path50" /><path
         d="M 239.972,343.272 H 191.755 V 364 h 48.217 v -20.728"
         style="fill:#52c5cb;fill-opacity:1;fill-rule:nonzero;stroke:none;stroke-width:0.1"
         id="path52" /><path
         d="m 164.963,324.892 -19.581,-11.311 -11.995,20.776 19.59,11.302 11.986,-20.767"
         style="fill:#4ac3c6;fill-opacity:1;fill-rule:nonzero;stroke:none;stroke-width:0.1"
         id="path54" /><path
         d="m 288.781,312.099 -19.587,11.309 11.995,20.769 19.583,-11.307 -11.991,-20.771"
         style="fill:#4ac3c6;fill-opacity:1;fill-rule:nonzero;stroke:none;stroke-width:0.1"
         id="path56" /><path
         d="m 196.976,200.568 -8.379,8.378 22.095,22.092 8.373,-8.372 -22.089,-22.098"
         style="fill:#286c84;fill-opacity:1;fill-rule:nonzero;stroke:none;stroke-width:0.1"
         id="path58" /><path
         d="m 221.261,223.262 c -2.753,-2.754 -7.219,-2.754 -9.973,0 -2.753,2.755 -2.753,7.217 0,9.977 2.754,2.749 7.22,2.749 9.973,0 2.754,-2.76 2.754,-7.222 0,-9.977"
         style="fill:#3698a1;fill-opacity:1;fill-rule:nonzero;stroke:none;stroke-width:0.1"
         id="path60" /><path
         d="m 219.249,292.373 h -6.77 v 11.985 h 6.77 v -11.985"
         style="fill:#c8c7c5;fill-opacity:1;fill-rule:nonzero;stroke:none;stroke-width:0.1"
         id="path62" /><path
         d="m 219.249,151.226 h -6.77 v 11.991 h 6.77 v -11.991"
         style="fill:#c8c7c5;fill-opacity:1;fill-rule:nonzero;stroke:none;stroke-width:0.1"
         id="path64" /><path
         d="m 292.431,224.409 h -11.989 v 6.767 h 11.989 v -6.767"
         style="fill:#c8c7c5;fill-opacity:1;fill-rule:nonzero;stroke:none;stroke-width:0.1"
         id="path66" /><path
         d="m 151.286,224.409 h -11.988 v 6.767 h 11.988 v -6.767"
         style="fill:#c8c7c5;fill-opacity:1;fill-rule:nonzero;stroke:none;stroke-width:0.1"
         id="path68" /><path
         d="m 159.094,258.618 -10.382,5.996 1.693,2.926 10.381,-5.997 -1.692,-2.925"
         style="fill:#c8c7c5;fill-opacity:1;fill-rule:nonzero;stroke:none;stroke-width:0.1"
         id="path70" /><path
         d="m 281.329,188.046 -10.383,5.998 1.692,2.926 10.383,-5.992 -1.692,-2.932"
         style="fill:#c8c7c5;fill-opacity:1;fill-rule:nonzero;stroke:none;stroke-width:0.1"
         id="path72" /><path
         d="m 249.617,282.876 -2.928,1.689 5.995,10.384 2.928,-1.687 -5.995,-10.386"
         style="fill:#c8c7c5;fill-opacity:1;fill-rule:nonzero;stroke:none;stroke-width:0.1"
         id="path74" /><path
         d="m 179.046,160.64 -2.926,1.696 5.991,10.378 2.931,-1.695 -5.996,-10.379"
         style="fill:#c8c7c5;fill-opacity:1;fill-rule:nonzero;stroke:none;stroke-width:0.1"
         id="path76" /><path
         d="m 182.111,282.874 -5.991,10.38 2.926,1.695 5.992,-10.384 -2.927,-1.691"
         style="fill:#c8c7c5;fill-opacity:1;fill-rule:nonzero;stroke:none;stroke-width:0.1"
         id="path78" /><path
         d="m 252.684,160.64 -5.993,10.382 2.931,1.695 5.993,-10.381 -2.931,-1.696"
         style="fill:#c8c7c5;fill-opacity:1;fill-rule:nonzero;stroke:none;stroke-width:0.1"
         id="path80" /><path
         d="m 272.638,258.62 -1.692,2.931 10.383,5.993 1.692,-2.927 -10.383,-5.997"
         style="fill:#c8c7c5;fill-opacity:1;fill-rule:nonzero;stroke:none;stroke-width:0.1"
         id="path82" /><path
         d="m 150.405,188.049 -1.693,2.929 10.382,5.992 1.692,-2.93 -10.381,-5.991"
         style="fill:#c8c7c5;fill-opacity:1;fill-rule:nonzero;stroke:none;stroke-width:0.1"
         id="path84" /></g></g></svg>
