<?xml version="1.0" encoding="UTF-8" standalone="no"?>
<svg
   xmlns:dc="http://purl.org/dc/elements/1.1/"
   xmlns:cc="http://creativecommons.org/ns#"
   xmlns:rdf="http://www.w3.org/1999/02/22-rdf-syntax-ns#"
   xmlns:svg="http://www.w3.org/2000/svg"
   xmlns="http://www.w3.org/2000/svg"
   xmlns:sodipodi="http://sodipodi.sourceforge.net/DTD/sodipodi-0.dtd"
   xmlns:inkscape="http://www.inkscape.org/namespaces/inkscape"
   version="1.1"
   id="svg2"
   xml:space="preserve"
   width="1000"
   height="1000"
   viewBox="0 0 1000 1000"
   sodipodi:docname="biscuit.svg"
   inkscape:version="1.0.1 (3bc2e813f5, 2020-09-07)"><metadata
     id="metadata8"><rdf:RDF><cc:Work
         rdf:about=""><dc:format>image/svg+xml</dc:format><dc:type
           rdf:resource="http://purl.org/dc/dcmitype/StillImage" /><dc:title></dc:title></cc:Work></rdf:RDF></metadata><defs
     id="defs6"><clipPath
       clipPathUnits="userSpaceOnUse"
       id="clipPath20"><path
         d="M 0,500 H 500 V 0 H 0 Z"
         id="path18" /></clipPath><clipPath
       clipPathUnits="userSpaceOnUse"
       id="clipPath128"><path
         d="M 23.3671,415.979 H 161.044 V 396.753 H 23.3671 Z"
         id="path126" /></clipPath><clipPath
       clipPathUnits="userSpaceOnUse"
       id="clipPath172"><path
         d="M 191.563,376.182 H 308.396 V 351.088 H 191.563 Z"
         id="path170" /></clipPath><clipPath
       clipPathUnits="userSpaceOnUse"
       id="clipPath200"><path
         d="M 196.096,331.986 H 303.904 V 302.095 H 196.096 Z"
         id="path198" /></clipPath><clipPath
       clipPathUnits="userSpaceOnUse"
       id="clipPath328"><path
         d="m 221.192,127.099 h 11.99 v -6.993 h -11.99 z"
         id="path326" /></clipPath><clipPath
       clipPathUnits="userSpaceOnUse"
       id="clipPath344"><path
         d="m 267.151,127.099 h 11.99 v -6.993 h -11.99 z"
         id="path342" /></clipPath><clipPath
       clipPathUnits="userSpaceOnUse"
       id="clipPath372"><path
         d="M 362.232,195.288 H 456.08 V 141.836 H 362.232 Z"
         id="path370" /></clipPath><clipPath
       clipPathUnits="userSpaceOnUse"
       id="clipPath400"><path
         d="m 380.647,110.364 h 11.989 v -6.994 h -11.989 z"
         id="path398" /></clipPath><clipPath
       clipPathUnits="userSpaceOnUse"
       id="clipPath416"><path
         d="m 426.606,110.364 h 11.989 v -6.994 h -11.989 z"
         id="path414" /></clipPath><clipPath
       clipPathUnits="userSpaceOnUse"
       id="clipPath456"><path
         d="M 0,500 H 500 V 0 H 0 Z"
         id="path454" /></clipPath><clipPath
       clipPathUnits="userSpaceOnUse"
       id="clipPath544"><path
         d="M 0,500 H 500 V 0 H 0 Z"
         id="path542" /></clipPath></defs><sodipodi:namedview
     pagecolor="#ffffff"
     bordercolor="#666666"
     borderopacity="1"
     objecttolerance="10"
     gridtolerance="10"
     guidetolerance="10"
     inkscape:pageopacity="0"
     inkscape:pageshadow="2"
     inkscape:window-width="1366"
     inkscape:window-height="715"
     id="namedview4"
     showgrid="false"
     inkscape:zoom="0.19717869"
     inkscape:cx="-239.72666"
     inkscape:cy="484.28388"
     inkscape:window-x="-8"
     inkscape:window-y="-8"
     inkscape:window-maximized="1"
     inkscape:current-layer="g10" /><g
     id="g10"
     inkscape:groupmode="layer"
     inkscape:label="2231577"
     transform="matrix(1.3333333,0,0,-1.3333333,0,666.66667)"><g
       id="g1100"
       transform="matrix(4.7337412,0,0,4.7337412,-902.96408,-445.59768)"><g
         id="g254"
         transform="translate(336.6681,142.08597)"><path
           d="m 0,0 c 2.233,-6.91 -2.123,-14.768 -2.134,-21.657 -0.011,-7.141 4.242,-15.022 2.066,-21.665 -2.2,-6.711 -10.318,-10.549 -14.473,-16.259 -4.115,-5.652 -5.259,-14.571 -11.043,-18.757 -5.582,-4.04 -14.361,-2.398 -21.272,-4.631 -6.911,-2.232 -13.071,-8.7 -19.961,-8.69 -7.141,0.011 -13.286,6.575 -19.93,8.752 -6.711,2.199 -15.54,0.562 -21.25,4.719 -5.652,4.114 -6.814,12.993 -11,18.778 -4.039,5.581 -12.169,9.404 -14.401,16.315 -2.233,6.91 2.124,14.768 2.134,21.658 0.011,7.14 -4.242,15.021 -2.065,21.666 2.199,6.709 10.317,10.548 14.473,16.257 4.114,5.653 5.258,14.572 11.043,18.758 5.581,4.039 14.361,2.398 21.272,4.63 6.91,2.232 13.07,8.7 19.96,8.69 7.141,-0.01 13.286,-6.575 19.931,-8.751 6.71,-2.2 15.54,-0.563 21.249,-4.718 5.652,-4.116 6.814,-12.994 11,-18.78 C -10.362,10.734 -2.232,6.911 0,0"
           style="fill:#f1a46c;fill-opacity:1;fill-rule:nonzero;stroke:none"
           id="path256" /></g><g
         id="g258"
         transform="translate(336.5997,107.75587)"><path
           d="m 0,0 c -2.199,-6.711 -10.317,-10.55 -14.473,-16.259 -4.115,-5.652 -5.258,-14.571 -11.043,-18.758 -5.582,-4.039 -14.361,-2.397 -21.272,-4.629 -6.91,-2.233 -13.07,-8.701 -19.961,-8.691 -7.14,0.011 -13.286,6.575 -19.93,8.752 -6.71,2.199 -15.54,0.563 -21.249,4.719 -5.653,4.114 -6.814,12.993 -11,18.778 -4.04,5.581 -12.169,9.404 -14.402,16.316 -0.035,0.108 -0.054,0.218 -0.086,0.327 -0.612,-3.18 -0.877,-6.338 0.086,-9.32 2.233,-6.911 10.362,-10.734 14.402,-16.315 4.186,-5.785 5.347,-14.664 11,-18.778 5.709,-4.157 14.539,-2.52 21.249,-4.719 6.644,-2.177 12.79,-8.741 19.93,-8.752 6.891,-0.01 13.051,6.458 19.961,8.69 6.911,2.233 15.69,0.591 21.272,4.631 5.785,4.186 6.928,13.105 11.043,18.757 4.156,5.71 12.274,9.548 14.473,16.259 0.95,2.898 0.675,6.032 0.065,9.237 C 0.041,0.164 0.026,0.08 0,0"
           style="fill:#dd8449;fill-opacity:1;fill-rule:nonzero;stroke:none"
           id="path260" /></g><g
         id="g1063"><g
           id="g266"
           transform="translate(273.294,176.95807)"><path
             d="m 0,0 c -1.512,-0.415 -14.648,-4.965 -12.15,-16.954 2.498,-11.989 13.386,-8.823 15.831,-9.415 5.599,-1.356 11.303,1.75 13.672,6.85 C 22.414,-8.62 11.164,3.068 0,0"
             style="fill:#a1563e;fill-opacity:1;fill-rule:nonzero;stroke:none"
             id="path268" /></g><g
           id="g270"
           transform="translate(317.714,153.08107)"><path
             d="m 0,0 c -2.684,1.423 -5.875,1.554 -8.543,0.38 -5.367,1.176 -11.027,-4.493 -9.672,-10.464 0.878,-3.864 4.512,-8.033 7.62,-10.33 C -7.096,-23 -2.216,-24.058 1.75,-21.773 10.335,-16.826 8.018,-4.252 0,0"
             style="fill:#a1563e;fill-opacity:1;fill-rule:nonzero;stroke:none"
             id="path272" /></g><g
           id="g274"
           transform="translate(314.9981,111.00587)"><path
             d="m 0,0 c -4.92,4.866 -12.713,0.526 -14.002,-5.419 -0.492,-1.001 -0.773,-2.109 -0.776,-3.197 -0.013,-6.216 6.891,-9.164 11.832,-5.865 C 1.791,-11.318 4.654,-4.604 0,0"
             style="fill:#a1563e;fill-opacity:1;fill-rule:nonzero;stroke:none"
             id="path276" /></g><g
           id="g278"
           transform="translate(266.1124,89.921973)"><path
             d="m 0,0 c -3.298,2.779 -8.636,3.074 -11.771,-0.195 -0.28,-0.292 -0.534,-0.621 -0.77,-0.969 -3.445,-0.441 -5.696,-3.912 -5.649,-7.262 0.101,-7.213 9.09,-11.43 15.329,-9.601 C 5.051,-15.707 5.89,-4.962 0,0"
             style="fill:#a1563e;fill-opacity:1;fill-rule:nonzero;stroke:none"
             id="path280" /></g><g
           id="g282"
           transform="translate(284.2657,81.567473)"><path
             d="M 0,0 C -0.037,0.832 -0.251,1.629 -0.64,2.364 -0.934,2.91 -1.336,3.349 -1.846,3.679 -2.299,4.093 -2.829,4.372 -3.439,4.518 -3.67,4.604 -3.966,4.605 -4.181,4.635 -4.999,4.744 -4.681,4.746 -5.501,4.637 -6.154,4.549 -6.747,4.384 -7.331,4.049 -7.596,3.896 -8.127,3.479 -8.35,3.267 -8.685,2.946 -9.023,2.504 -9.253,2.101 -9.405,1.831 -9.682,1.188 -9.765,0.888 -9.779,0.835 -9.792,0.783 -9.805,0.729 c -0.221,-0.966 -0.229,-1.776 -0.005,-2.75 0.162,-0.694 0.492,-1.291 0.922,-1.849 0.219,-0.368 0.512,-0.661 0.88,-0.879 0.162,-0.149 0.335,-0.282 0.52,-0.398 0.378,-0.243 0.802,-0.419 1.239,-0.516 1.328,-0.293 2.567,-0.149 3.788,0.496 1.409,0.745 2.431,2.51 2.355,4.106 0,0.012 -0.002,0.03 -0.003,0.041 C -0.027,-0.686 0.016,-0.343 0,0"
             style="fill:#a1563e;fill-opacity:1;fill-rule:nonzero;stroke:none"
             id="path284" /></g><g
           id="g286"
           transform="translate(232.4698,122.03917)"><path
             d="m 0,0 c -3.427,3.735 -9.32,4.513 -13.49,1.665 -2.064,-1.409 -13.786,-8.16 -4.603,-21.081 6.066,-8.534 17.928,-3.487 20.844,5.659 C 4.218,-9.156 3.301,-3.598 0,0"
             style="fill:#a1563e;fill-opacity:1;fill-rule:nonzero;stroke:none"
             id="path288" /></g><g
           id="g290"
           transform="translate(219.5343,134.23447)"><path
             d="M 0,0 C -0.241,0.746 -0.632,1.417 -1.162,1.994 -1.939,2.841 -3.236,3.296 -4.357,3.317 -4.96,3.329 -5.586,3.252 -6.161,3.064 -6.589,2.925 -7.102,2.707 -7.496,2.49 -8.295,2.049 -8.865,1.349 -9.354,0.599 -9.689,0.086 -9.926,-0.54 -10.109,-1.119 c -0.281,-0.889 -0.225,-1.85 -0.027,-2.746 0.112,-0.508 0.327,-1.002 0.622,-1.43 0.427,-0.723 1.002,-1.298 1.724,-1.726 0.75,-0.434 1.559,-0.653 2.427,-0.656 1.762,0 3.209,0.944 4.152,2.382 0.053,0.082 0.105,0.158 0.155,0.243 0.27,0.456 0.417,0.935 0.517,1.429 0.006,0.01 0.012,0.02 0.018,0.03 l -0.022,-0.164 c 0.014,0.08 0.04,0.154 0.061,0.231 0.01,0.014 0.016,0.03 0.026,0.045 -0.002,-0.001 -0.004,-0.001 -0.007,-0.001 0.091,0.171 0.173,0.35 0.235,0.54 C 0.151,-2.044 0.309,-0.953 0,0"
             style="fill:#a1563e;fill-opacity:1;fill-rule:nonzero;stroke:none"
             id="path292" /></g><g
           id="g294"
           transform="translate(242.0211,165.69737)"><path
             d="m 0,0 c -1.041,2.467 -3.433,4.246 -6.181,4.203 -2.715,-0.043 -5.142,-1.948 -5.906,-4.547 -0.168,-0.572 -0.255,-1.147 -0.264,-1.71 -0.375,-1.099 -0.462,-2.307 -0.178,-3.418 0.543,-2.124 2.35,-3.647 4.461,-4.076 2.384,-0.484 5.034,0.516 6.662,2.295 C 0.396,-5.283 1.055,-2.499 0,0"
             style="fill:#a1563e;fill-opacity:1;fill-rule:nonzero;stroke:none"
             id="path296" /></g><g
           id="g298"
           transform="translate(250.0084,141.71097)"><path
             d="m 0,0 c -1.075,2.766 -4.303,4.103 -7.08,4.275 -2.425,0.153 -4.58,-0.678 -6.148,-2.077 -0.89,-0.342 -1.732,-0.8 -2.48,-1.491 -2.062,-1.902 -2.648,-4.825 -1.329,-7.342 3.08,-5.873 10.327,-3.929 14.374,-0.502 C -0.528,-5.329 1.113,-2.861 0,0"
             style="fill:#dd8449;fill-opacity:1;fill-rule:nonzero;stroke:none"
             id="path300" /></g><g
           id="g302"
           transform="translate(294.089,146.12217)"><path
             d="m 0,0 c -5.021,3.063 -12.475,0.047 -12.938,-6.073 -0.42,-5.549 5.7,-9.794 10.348,-7.114 0.123,0.016 0.243,0.018 0.366,0.041 2.795,0.491 5,2.815 5.571,5.571 C 3.973,-4.546 2.631,-1.604 0,0"
             style="fill:#dd8449;fill-opacity:1;fill-rule:nonzero;stroke:none"
             id="path304" /></g><g
           id="g306"
           transform="translate(241.6432,94.449273)"><path
             d="m 0,0 c -2.791,2.641 -7.098,2.339 -9.747,-0.342 -2.68,-2.712 -2.864,-6.811 -1.107,-10.061 0.004,-0.008 0.009,-0.016 0.014,-0.023 0.02,-0.094 0.039,-0.192 0.063,-0.28 0.885,-3.217 3.979,-5.496 7.337,-4.897 C 3.303,-14.399 4.463,-4.221 0,0"
             style="fill:#dd8449;fill-opacity:1;fill-rule:nonzero;stroke:none"
             id="path308" /></g><g
           id="g310"
           transform="translate(301.2315,88.211973)"><path
             d="m 0,0 c -2.422,0.002 -4.583,-1.507 -5.666,-3.624 -0.148,-0.291 -0.272,-0.588 -0.381,-0.888 -0.009,-0.022 -0.021,-0.045 -0.029,-0.068 -0.799,-2.269 -0.429,-4.696 1.118,-6.622 0.802,-0.998 2.407,-1.324 3.712,-1.019 1.991,-0.451 4.177,-0.034 5.824,1.496 C 8.689,-6.905 5.366,-0.004 0,0"
             style="fill:#dd8449;fill-opacity:1;fill-rule:nonzero;stroke:none"
             id="path312" /></g><g
           id="g314"
           transform="translate(250.0538,154.91117)"><path
             d="m 0,0 c -0.555,1.056 -1.95,1.561 -3.07,1.25 -2.316,-0.644 -5.061,-3.16 -3.51,-5.768 0.68,-1.142 1.726,-1.825 3.038,-2.001 1.071,-0.143 2.124,0.065 2.922,0.864 0.29,0.29 0.482,0.611 0.625,0.952 0.26,0.388 0.452,0.821 0.552,1.265 C 0.828,-2.248 0.559,-1.063 0,0"
             style="fill:#dd8449;fill-opacity:1;fill-rule:nonzero;stroke:none"
             id="path316" /></g><g
           id="g318"
           transform="translate(310.296,164.68857)"><path
             d="m 0,0 c -0.839,4.548 -7.061,7.127 -9.946,2.783 -1.236,-1.859 -1.129,-4.32 0.357,-6.006 0.556,-1.059 1.479,-1.924 2.832,-2.397 C -3.058,-6.911 0.723,-3.919 0,0"
             style="fill:#dd8449;fill-opacity:1;fill-rule:nonzero;stroke:none"
             id="path320" /></g><g
           id="g1031"
           transform="translate(261.88303,134.16693)"><path
             d="m 0,0 c -1.512,-0.415 -14.648,-4.965 -12.15,-16.954 2.498,-11.989 13.386,-8.823 15.831,-9.415 5.599,-1.356 11.303,1.75 13.672,6.85 C 22.414,-8.62 11.164,3.068 0,0"
             style="fill:#a1563e;fill-opacity:1;fill-rule:nonzero;stroke:none"
             id="path1029" /></g></g></g></g></svg>
